<svg width="142" height="144" xmlns="http://www.w3.org/2000/svg" xmlns:xlink="http://www.w3.org/1999/xlink" xml:space="preserve" overflow="hidden"><defs><clipPath id="clip0"><rect x="118" y="81" width="142" height="144"/></clipPath><clipPath id="clip1"><rect x="118" y="81" width="142" height="144"/></clipPath><clipPath id="clip2"><rect x="119" y="82" width="141" height="143"/></clipPath><clipPath id="clip3"><rect x="119" y="82" width="141" height="143"/></clipPath><clipPath id="clip4"><rect x="119" y="82" width="401" height="173"/></clipPath><linearGradient x1="59.1276" y1="1.49011" x2="59.1276" y2="126.123" gradientUnits="userSpaceOnUse" spreadMethod="pad" id="fill5"><stop offset="0" stop-color="#FFFFFF" stop-opacity="1"/><stop offset="0.335714" stop-color="#FFFFFF" stop-opacity="1"/><stop offset="1" stop-color="#96A1FF" stop-opacity="1"/></linearGradient><linearGradient x1="69.5384" y1="92.8835" x2="69.5384" y2="170.369" gradientUnits="userSpaceOnUse" spreadMethod="pad" id="fill6"><stop offset="0" stop-color="#002CDC" stop-opacity="1"/><stop offset="1" stop-color="#3B5FEE" stop-opacity="1"/></linearGradient></defs><g clip-path="url(#clip0)" transform="translate(-118 -81)"><g clip-path="url(#clip1)"><g clip-path="url(#clip2)"><g clip-path="url(#clip3)"><g clip-path="url(#clip4)"><path d="M53.1018 21.9594C53.1018 24.9913 51.0461 27.4492 48.5103 27.4492 45.9745 27.4492 43.9188 24.9913 43.9188 21.9594 43.9188 18.9274 45.9745 16.4695 48.5103 16.4695 51.0461 16.4695 53.1018 18.9274 53.1018 21.9594Z" fill="#000000" fill-rule="nonzero" fill-opacity="1" transform="matrix(0.650313 -0.761909 0.753395 0.657662 121.741 121.546)"/><path d="M113.737 21.7028C113.737 23.7968 111.727 25.4944 109.247 25.4944 106.767 25.4944 104.757 23.7968 104.757 21.7028 104.757 19.6088 106.767 17.9113 109.247 17.9113 111.727 17.9113 113.737 19.6088 113.737 21.7028Z" fill="#000000" fill-rule="nonzero" fill-opacity="1" transform="matrix(0.778888 -0.627162 0.620154 0.78769 130.596 151.964)"/><path d="M13.0434 119.963C9.0102 119.963 7.80818 118.503 7.50022 117.281 7.04326 115.443 8.52343 113.377 11.3546 111.877 20.9808 106.781 34.7494 96.6879 41.8523 85.0253L42.2993 84.2902 43.1636 84.3101C43.9483 84.3299 44.6139 84.6875 45.051 85.3134 46.2828 87.1214 45.2696 90.5089 42.647 97.8005 41.6039 100.711 40.5211 103.721 40.3224 105.291 39.4581 111.996 33.5374 116.089 20.5238 118.97 17.5337 119.636 15.0203 119.963 13.0434 119.963Z" fill="#B0B7F3" fill-rule="nonzero" fill-opacity="1" transform="matrix(1 0 0 1.0113 119 82.3391)"/><path d="M20.8459 120.425 20.8476 120.425C33.9046 117.534 40.889 112.552 41.8007 105.478 41.918 104.551 42.6561 102.192 44.0149 98.4003L44.0492 98.3049C46.7341 90.84 47.4752 86.2251 46.2726 84.4602 45.5323 83.4001 44.5073 82.8535 43.1977 82.8203L41.4732 82.7807 40.5796 84.2502C37.4024 89.467 32.7408 94.6401 26.5948 99.7696 21.4547 104.06 16.1421 107.656 10.657 110.56 6.90856 112.546 5.37466 114.908 6.0553 117.645 6.69515 120.184 9.02453 121.454 13.0434 121.454 15.1638 121.454 17.7647 121.111 20.8459 120.425ZM38.8441 105.104C38.1113 110.789 31.8972 114.926 20.2017 117.515L20.2001 117.515C17.3313 118.154 14.9458 118.473 13.0434 118.473 10.5727 118.473 9.20664 117.955 8.94515 116.917 8.64093 115.694 9.67664 114.453 12.0523 113.194 17.7206 110.193 23.2046 106.481 28.5044 102.058 34.903 96.7173 39.7765 91.2982 43.1249 85.8004L43.1253 85.7997 43.1293 85.7998C43.4305 85.8074 43.6638 85.9297 43.8293 86.1666 44.4482 87.0751 43.5867 90.7849 41.2448 97.2962L41.2094 97.3949C39.7772 101.391 38.9888 103.961 38.8441 105.104Z" fill="#000000" fill-rule="evenodd" fill-opacity="1" transform="matrix(1 0 0 1.0113 119 82.3391)"/><path d="M104.427 71.7641C102.46 71.7641 100.433 70.9892 98.8738 69.6382 98.0989 68.9726 91.3934 62.7638 93.4895 50.1277L94.1154 46.3428 96.2115 49.5615C97.2446 51.1608 99.1122 52.8695 101.089 54.6874 103.751 57.1312 106.761 59.9028 108.818 63.3003 110.586 66.2308 109.94 68.2673 109.404 69.221 108.5 70.8104 106.652 71.7641 104.437 71.7641L104.427 71.7641Z" fill="#B0B7F3" fill-rule="nonzero" fill-opacity="1" transform="matrix(1 0 0 1.0113 119 82.3391)"/><path d="M104.427 73.2542 104.437 73.2542C107.362 73.2542 109.45 72.1533 110.703 69.9515 111.947 67.7393 111.744 65.2651 110.093 62.5287 108.64 60.1293 105.975 57.1499 102.098 53.5906L102.02 53.5187C99.5929 51.2873 98.0731 49.6971 97.4601 48.7483L93.271 42.3156 92.0195 49.8838C91.0855 55.5146 91.6645 60.5553 93.7565 65.0058 94.9134 67.467 96.294 69.3866 97.8981 70.7645 99.8143 72.4243 101.991 73.2542 104.427 73.2542ZM108.105 68.4904C107.429 69.6795 106.206 70.274 104.437 70.274L104.427 70.274C102.731 70.274 101.206 69.6866 99.8494 68.5119 98.5616 67.4056 97.4296 65.8143 96.4536 63.738 94.6248 59.8475 94.1268 55.392 94.9596 50.3715L94.9598 50.37 94.9628 50.3746C95.7092 51.5302 97.3891 53.3095 100.002 55.7125L100.08 55.7843C103.75 59.1528 106.238 61.9153 107.543 64.0718 108.595 65.8145 108.782 67.2873 108.105 68.4904Z" fill="#000000" fill-rule="evenodd" fill-opacity="1" transform="matrix(1 0 0 1.0113 119 82.3391)"/><path d="M35.1375 123.838C33.4288 116.447 35.813 108.579 38.1078 100.97 39.5482 96.1916 40.9191 91.6716 41.088 87.7476 41.4556 79.254 43.2437 62.7337 43.8894 56.952 42.9556 57.3096 41.5748 57.9951 39.7072 59.2766 35.8527 61.9389 24.1306 70.0352 14.3256 70.0352 13.7693 70.0352 13.2229 70.0054 12.7064 69.9557 9.74601 69.6676 7.40157 67.3629 7.00421 64.3529 6.77572 62.5946 6.86513 56.5547 17.7827 52.4718 20.8523 51.3393 23.7233 49.0246 27.3591 46.0841 30.091 43.8788 33.1904 41.3754 37.1442 38.723 38.4555 37.8289 39.8661 37.223 41.2271 36.6368 44.9822 35.0176 48.2207 33.6268 49.5916 26.5637 51.8565 14.9011 54.7374 8.91086 65.8536 4.23191 70.1054 2.44378 75.2016 1.49011 80.5759 1.49011 88.1457 1.49011 95.6857 3.37758 100.752 6.52668 109.147 11.752 111.938 23.1563 111.183 29.2161 110.289 36.3885 105.898 41.7231 96.9771 46.4418 95.0201 54.1009 93.1723 64.8695 94.9307 74.0982 95.1194 74.4161 95.4472 74.9724 95.5168 75.0916 97.2552 77.6944 99.699 79.2739 102.053 80.7938 104.487 82.3634 107.011 83.9926 108.6 86.6946 109.723 88.6616 109.951 91.7709 109.286 96.2115L109.107 97.4532 107.855 97.483C100.235 97.6718 82.9495 98.844 73.4035 104.298 63.8576 109.752 47.267 117.063 37.5117 124.683L35.664 126.123 35.1375 123.848 35.1375 123.838Z" fill="url(#fill5)" fill-rule="nonzero" transform="matrix(1 0 0 1.0113 119 82.3391)"/><path d="M33.6475 124.004C32.5122 118.832 33.5168 111.033 36.6611 100.606L36.6812 100.54 36.716 100.424C38.5319 94.4006 39.493 90.1538 39.5993 87.6836 39.8524 81.8341 40.6886 72.4405 42.1077 59.5029 41.6156 59.7963 41.0965 60.1305 40.5503 60.5052 29.914 67.852 21.1724 71.5253 14.3256 71.5253 13.7495 71.5253 13.1622 71.4965 12.5637 71.439 8.42584 71.0363 6.08023 68.7393 5.52692 64.5479 5.26244 62.5126 5.73332 60.5004 6.93955 58.5114 8.80904 55.4286 12.2494 52.9501 17.2607 51.076 19.1687 50.3722 22.2224 48.322 26.422 44.9255L26.4427 44.9089C30.3576 41.7485 33.648 39.274 36.314 37.4855 37.2569 36.8426 38.6919 36.1062 40.6189 35.2763L40.6377 35.2682 40.647 35.2643C42.8894 34.2973 44.4268 33.4021 45.2593 32.5786 46.6182 31.2344 47.5747 29.1348 48.1288 26.2798 49.3784 19.8453 51.0584 15.0669 53.1688 11.9445 55.6817 8.22673 59.7173 5.19805 65.2756 2.85851 69.8068 0.952836 74.907 0 80.5759 0 88.9082 0 95.8958 1.75371 101.539 5.26112 105.66 7.82616 108.743 11.7457 110.788 17.0196 112.512 21.4644 113.136 25.5913 112.661 29.4004 111.753 36.6828 106.953 42.6971 98.2611 47.4434 95.6866 57.7621 95.0486 66.4696 96.3471 73.5659L96.4468 73.7343 96.7784 74.2975C97.8311 75.8552 99.8588 77.6034 102.862 79.5419 106.363 81.7999 108.704 83.9323 109.885 85.9391 111.177 88.2034 111.468 91.7011 110.759 96.4324L110.402 98.9129 107.89 98.9727C92.4457 99.3553 81.1966 101.561 74.1427 105.591 72.1164 106.749 68.5306 108.648 63.3855 111.289 51.1261 117.582 42.8072 122.437 38.429 125.857L34.7387 128.734 33.6475 124.019 33.6475 124.004ZM36.5913 123.51 36.5893 123.502C35.5131 118.847 36.4881 111.502 39.5145 101.467L39.5344 101.4 39.5694 101.284C41.4573 95.0218 42.4597 90.5311 42.5767 87.8117 42.8443 81.6283 43.7755 71.3969 45.3703 57.1174L45.642 54.6852 43.3565 55.5605C42.0479 56.0616 40.5505 56.8908 38.8641 58.0479 28.7324 65.046 20.553 68.5451 14.3256 68.5451 13.8447 68.5451 13.3525 68.5209 12.849 68.4725 10.2841 68.2229 8.82827 66.7847 8.4815 64.1579 7.93486 59.9511 11.2092 56.5209 18.3046 53.8674 20.5114 53.0533 23.8419 50.8451 28.2961 47.2428L28.3147 47.2278C32.1613 44.1225 35.3812 41.7001 37.9744 39.9605 38.7718 39.4168 40.0463 38.7678 41.7977 38.0135L41.8165 38.0055 41.8271 38.0009C44.4135 36.8856 46.2562 35.7844 47.3552 34.6973 49.1503 32.9216 50.3833 30.305 51.0544 26.8476 52.2266 20.8113 53.7545 16.3999 55.6379 13.6134 57.82 10.385 61.4179 7.71569 66.4317 5.60532 70.5929 3.85525 75.3077 2.98022 80.5759 2.98022 88.3411 2.98022 94.8043 4.58423 99.9653 7.79224 103.522 10.0063 106.203 13.4413 108.009 18.0973 109.552 22.075 110.117 25.7199 109.704 29.0319 108.904 35.4499 104.429 40.8141 96.2803 45.1246L95.6968 45.4333 95.5334 46.0729C92.6847 57.2217 91.9958 66.6564 93.4669 74.3771L93.5157 74.633 93.8821 75.2523 94.2542 75.8841 94.2777 75.9192C95.5524 77.8278 97.8749 79.8699 101.245 82.0457 104.351 84.0485 106.374 85.85 107.316 87.4501 108.254 89.0937 108.419 91.9405 107.811 95.9906L107.811 95.9935C91.8678 96.3892 80.1521 98.7261 72.6643 103.004 70.6767 104.14 67.1302 106.017 62.0248 108.638 49.5979 115.016 41.1212 119.972 36.5945 123.508L36.5913 123.51Z" fill="#000000" fill-rule="evenodd" fill-opacity="1" transform="matrix(1 0 0 1.0113 119 82.3391)"/><path d="M78.4791 81.8435C70.5319 82.8369 65.5649 78.8635 65.5649 71.4128 65.5649 63.9622 66.5583 52.0413 72.0219 43.5973 78.8168 37.4978 95.8935 40.9551 95.367 44.0942 92.3868 49.5578 90.609 62.996 89.4066 71.4128 88.9099 74.8897 86.4264 80.8501 78.4791 81.8435Z" fill="#FFFFFF" fill-rule="nonzero" fill-opacity="1" transform="matrix(1 0 0 1.0113 119 82.3391)"/><path d="M91.7908 33.4185C93.877 30.8356 96.3605 29.0475 96.4598 27.6567 96.5592 26.2659 91.7908 24.1798 89.9033 24.4778 88.0159 24.7758 83.6449 27.6567 83.7442 29.2461 83.8436 30.8356 87.4198 32.3257 89.2079 33.6171 89.0093 35.4052 86.0787 37.1636 83.8336 37.1636 80.8335 37.1636 77.3765 35.4748 77.1679 36.2695 76.8996 37.3126 80.2474 38.8822 83.8336 38.8822 86.337 38.8822 87.8967 37.9881 89.1881 36.8258 90.3901 35.7529 91.304 36.2993 91.7213 36.6371 92.6948 37.4318 94.6717 37.9881 96.2711 37.9881 98.0989 37.9881 101.029 36.5278 100.751 35.8821 100.304 34.8191 98.1387 36.3987 96.5294 36.3987 93.1816 36.3987 91.4729 34.5112 91.7709 33.4185L91.7908 33.4185Z" fill="#000000" fill-rule="nonzero" fill-opacity="1" transform="matrix(1 0 0 1.0113 119 82.3391)"/><path d="M75.1016 22.7288C75.1016 24.4845 74.0786 25.9077 72.8167 25.9077 71.5548 25.9077 70.5319 24.4845 70.5319 22.7288 70.5319 20.9732 71.5548 19.5499 72.8167 19.5499 74.0786 19.5499 75.1016 20.9732 75.1016 22.7288Z" fill="#000000" fill-rule="nonzero" fill-opacity="1" transform="matrix(1 0 0 1.0113 119 82.3391)"/><path d="M104.794 22.729C104.794 24.375 103.86 25.7092 102.708 25.7092 101.556 25.7092 100.622 24.375 100.622 22.729 100.622 21.0831 101.556 19.7488 102.708 19.7488 103.86 19.7488 104.794 21.0831 104.794 22.729Z" fill="#000000" fill-rule="nonzero" fill-opacity="1" transform="matrix(1 0 0 1.0113 119 82.3391)"/><path d="M78.499 104.944C76.8301 105.526 73.2704 106.904 67.8199 109.076 67.4159 107.917 67.6311 106.444 68.4656 104.655 72.5386 97.4036 70.1544 92.1385 84.8568 88.6616 79.6911 91.2444 78.8964 94.5227 78.7971 100.582 78.8103 102.258 78.711 103.715 78.499 104.953L78.499 104.944Z" fill="#000000" fill-rule="nonzero" fill-opacity="1" transform="matrix(1 0 0 1.0113 119 82.3391)"/><path d="M1.12754e-05 139.014C7.84267 140.529 19.5771 141.638 26.868 139.856 37.4497 137.271 48.9674 125.97 63.3225 114.135 77.6778 102.3 102.565 95.1492 122.32 101.933 128.024 103.894 130.941 107.816 130.941 107.915 129.266 106.826 127.493 105.637 125.719 104.845 117.246 100.983 107.097 100.884 98.1318 102.963 96.8509 103.261 95.6687 103.558 94.3878 103.954 93.2055 104.35 91.9246 104.746 90.7424 105.142 89.56 105.538 88.3778 106.034 87.1954 106.529 86.013 107.024 84.8308 107.618 83.747 108.113 82.5647 108.708 81.4809 109.302 80.3971 109.995 79.3133 110.688 78.2295 111.283 77.1458 112.075 76.062 112.768 75.0767 113.561 73.9929 114.254 73.0077 115.046 71.9239 115.839 71.0371 116.631 67.2932 119.899 63.8448 123.564 60.3964 127.03 46.6027 141.787 36.5531 149.71 15.3701 150.403 11.9217 150.502 3.3499 150.205 0.0985432 148.522 23.6463 166.052 59.8052 171.4 78.6237 170.211 98.4274 169.023 121.679 160.604 127.986 144.956 115.473 135.646 111.531 150.899 101.481 145.848 91.432 140.796 97.6391 128.615 107.197 121.187 116.753 113.759 123.463 114.422 126.99 115.878 132.498 118.146 132.626 122.474 132.32 123.564 131.936 124.95 130.843 125.842 129.759 126.733 132.813 126.238 134.783 125.544 137.148 123.167 139.02 120.592 139.414 117.621 138.823 114.551 137.837 108.906 134.587 103.558 129.956 100.388 118.724 92.4652 104.408 92.1186 90.6044 93.525 75.057 95.1096 56.1007 105.717 40.9473 117.384 31.7746 124.445 16.0597 135.953 0 139.024L1.12754e-05 139.014ZM76.5546 140.004C67.0961 150.998 51.263 158.307 35.3708 157.138 27.6858 156.573 22.661 155.454 21.5772 154.464 33.7944 155.85 48.2777 151.493 53.9922 147.828 59.7066 144.164 66.6035 135.547 70.3475 132.972 74.0915 130.397 76.259 130.992 77.5399 131.883 79.7074 133.27 79.1163 137.033 76.5546 140.004Z" fill="url(#fill6)" fill-rule="nonzero" transform="matrix(1 0 0 1.0113 119 82.3391)"/><path d="M71.5253 45.2C75.4989 47.1868 80.9627 48.677 86.4264 48.6769 90.0688 48.6769 93.3802 48.1802 96.3604 47.1868L98.844 43.7099C91.8901 47.0213 82.7839 47.518 71.5253 45.2Z" fill="#000000" fill-rule="nonzero" fill-opacity="1" transform="matrix(1 0 0 1.0113 119 82.3391)"/></g></g></g></g></g></svg>