<?xml version="1.0" encoding="UTF-8"?>
<!--
 Licensed to the Apache Software Foundation (ASF) under one
 or more contributor license agreements.  See the NOTICE file
 distributed with this work for additional information
 regarding copyright ownership.  The ASF licenses this file
 to you under the Apache License, Version 2.0 (the
 "License"); you may not use this file except in compliance
 with the License.  You may obtain a copy of the License at

      http://www.apache.org/licenses/LICENSE-2.0

 Unless required by applicable law or agreed to in writing, software
 distributed under the License is distributed on an "AS IS" BASIS,
 WITHOUT WARRANTIES OR CONDITIONS OF ANY KIND, either express or implied.
 See the License for the specific language governing permissions and
 limitations under the License.
-->

<svg id="_图层_1" xmlns="http://www.w3.org/2000/svg" version="1.1" viewBox="0 0 403.4 173">
  <!-- Generator: Adobe Illustrator 29.4.0, SVG Export Plug-In . SVG Version: 2.1.0 Build 152)  -->
  <path d="M209.6,56h27.8l-1.3,10.7h-24.8c-5.7,0-10.5,4.2-11.2,9.9l-1.5,11.9h31.4l-1.3,10.7h-31.4l-5,40.6c-.5,4.3-4.1,7.5-8.4,7.5h-4l9-72.9c1.3-10.4,10.1-18.3,20.7-18.3h0Z"/>
  <path d="M235.8,129.2l8.9-73.2h11.2l-8.9,73.2h-11.2Z"/>
  <path d="M294.1,118.5l5.3-43.6h11.2l-6.6,54.3h-24.5c-13.5,0-20.2-6.2-20.2-18.5s.1-3.1.3-4.9l3.8-30.9h11.2l-3.8,31.2c-.1.8-.2,2-.2,3.5,0,3.4.8,5.7,2.4,7s4.2,1.9,7.8,1.9h13.4,0Z"/>
  <path d="M327.4,129.6c-6-.1-11.1-.4-15.5-.8l.9-6.5c.3-2.2,2.3-3.8,4.6-3.6,4.5.4,8.3.6,11.3.7h3.3c4.2,0,7.1-.5,8.7-1.6,1.6-1,2.7-2.5,3.1-4.5,0-.3.1-.8.1-1.4,0-1.6-.3-2.7-.8-3.2-.4-.7-1.2-1.2-2.2-1.5s-3-.6-6-.9l-2.2-.3c-3.4-.3-6.6-.8-9.7-1.8-2.4-.9-4.2-2.2-5.4-3.9-1.2-1.7-1.8-4-1.8-6.9s0-1.6.2-3c.5-4,1.6-7.1,3.4-9.3,1.8-2.2,4.4-3.9,7.6-4.8s7.4-1.5,12.6-1.5h17.8c0,0-.8,6.7-.8,6.7-.3,2.1-2.1,3.7-4.2,3.7h-14c-2.9,0-5,0-6.5.4s-2.6.8-3.3,1.5-1.1,1.7-1.3,3c0,.3-.1.8-.1,1.3,0,1,.3,1.9.9,2.6.6.8,1.6,1.3,2.9,1.6,1.3.3,3.6.6,7.1,1,4.1.4,7.4,1,10,1.9,2.3.8,4,2.1,5.2,4s1.8,4.3,1.8,7.3,0,2.5-.2,3.3c-.8,6-3.1,10.3-6.8,12.7-3.8,2.4-9.6,3.7-17.4,3.7h-3.3Z"/>
  <path d="M373.4,129.6c-6-.1-11.1-.4-15.5-.8l.9-6.5c.3-2.2,2.3-3.8,4.6-3.6,4.5.4,8.3.6,11.3.7h3.3c4.2,0,7.1-.5,8.7-1.6,1.6-1,2.7-2.5,3.1-4.5,0-.3.1-.8.1-1.4,0-1.6-.3-2.7-.8-3.2-.4-.7-1.2-1.2-2.2-1.5s-3-.6-6-.9l-2.2-.3c-3.4-.3-6.6-.8-9.7-1.8-2.4-.9-4.2-2.2-5.4-3.9-1.2-1.7-1.8-4-1.8-6.9s0-1.6.2-3c.5-4,1.6-7.1,3.4-9.3,1.8-2.2,4.4-3.9,7.6-4.8s7.4-1.5,12.6-1.5h17.8c0,0-.8,6.7-.8,6.7-.3,2.1-2.1,3.7-4.2,3.7h-14c-2.9,0-5,0-6.5.4s-2.6.8-3.3,1.5c-.7.7-1.1,1.7-1.3,3,0,.3-.1.8-.1,1.3,0,1,.3,1.9.9,2.6.6.8,1.6,1.3,2.9,1.6,1.3.3,3.6.6,7.1,1,4.1.4,7.4,1,10,1.9,2.3.8,4,2.1,5.2,4s1.8,4.3,1.8,7.3,0,2.5-.2,3.3c-.8,6-3.1,10.3-6.8,12.7-3.8,2.4-9.6,3.7-17.4,3.7h-3.3Z"/>
  <g>
    <path d="M84.4,40.6c3.6,0,4.1-.9,5.4-2.1,1.2-1.1,2.1-.5,2.6-.2,1,.8,3,1.4,4.6,1.4s4.8-1.5,4.5-2.1c-.5-1.1-2.6.5-4.2.5-3.4,0-5.1-1.9-4.8-3h0c2.1-2.6,4.6-4.4,4.7-5.8,0-1.4-4.7-3.5-6.6-3.2s-6.3,3.2-6.2,4.8c.1,1.6,3.7,3.1,5.5,4.4-.2,1.8-3.2,3.6-5.4,3.6s-6.5-1.7-6.7-.9c-.3,1,3.1,2.6,6.7,2.6Z"/>
    <path d="M73.3,27.6c1.3,0,2.3-1.4,2.3-3.2s-1-3.2-2.3-3.2-2.3,1.4-2.3,3.2,1,3.2,2.3,3.2Z"/>
    <path d="M103.4,27.4c1.2,0,2.1-1.3,2.1-3s-.9-3-2.1-3-2.1,1.3-2.1,3,.9,3,2.1,3Z"/>
    <path d="M139.4,116.7c-1-5.7-4.3-11.1-8.9-14.3-5.1-3.6-10.9-5.7-17-6.7.2-3.6-.3-6.4-1.4-8.4-1.3-2.2-3.8-4.5-7.5-6.9-2.8-1.8-4.7-3.4-5.7-4.8l-.3-.5v-.5c2,1.4,4.4,2.3,6.8,2.3s6.2-1.5,7.6-4.1c.7-1.2,2-4.6-.6-9-2.3-3.8-5.6-6.9-8.3-9.3-1.4-1.3-2.8-2.5-3.7-3.6,0-.2,0-.3,0-.5,8.8-5,13.7-11.3,14.7-19h-.3c.3-2.8.1-5.7-.6-8.7,1.9-1.6,2.4-4.1,1.1-5.7-.8-1-2.2-1.4-3.5-1.2-2.2-4.5-5.1-7.9-8.9-10.3-5.9-3.7-13.2-5.5-21.9-5.5s-11.2,1-16,3c-5.9,2.5-10.2,5.7-12.8,9.7,0,0,0,.1,0,.2-2.1-1.2-4.7-1-6.1.6-1.7,1.9-1.1,5.1,1.2,7.1.4.3.8.6,1.3.8-.6,1.9-1.1,4-1.5,6.3-.5,2.6-1.3,4.4-2.5,5.6s-2.1,1.5-4.2,2.4c-2,.9-3.6,1.7-4.6,2.4-2.7,1.8-6.1,4.3-10,7.6-4.1,3.3-7,5.3-8.8,6-5.4,2-9.1,4.7-11.1,8.1-1.4,2.3-1.9,4.7-1.6,7.1.3,2.2,1.2,4.1,2.8,5.6s3.5,2.4,5.7,2.6h1.9c7,0,15.7-3.5,26.1-10.6-1,9.8-1.7,17.4-2.1,22.8-7.1,10.6-19.7,19.7-28.5,24.3-4.1,2.2-6.2,5.6-5.4,8.8.5,1.9,2.2,5,8.5,5s5-.4,8.2-1.1c4.3-.9,7.7-2,10.6-3.2,0,1.8,0,3.3.3,4.8-9,6.3-20.8,13.2-32.6,15.4h.3c7.9,1.6,19.7,2.7,27,.9,10.7-2.6,22.2-14,36.7-25.9,6.3-5.1,14.5-9.4,23.4-12,1.6-.4,3.2-.7,5-1.1,5.9-1.1,10.9-1.7,15.1-1.8h.8c5.2.1,10.3,1,15.1,2.6,5.7,2,8.7,5.9,8.7,6-1.7-1.1-3.5-2.3-5.3-3.1-8.5-3.9-18.7-4-27.8-1.9-1.3.3-2.5.6-3.8,1-1.2.4-2.5.8-3.7,1.2-1.2.4-2.4.9-3.6,1.4-1.2.5-2.4,1.1-3.5,1.6-1.2.6-2.3,1.2-3.4,1.9-1.1.7-2.2,1.3-3.3,2.1-1.1.7-2.1,1.5-3.2,2.2-1,.8-2.1,1.6-3,2.4-3.8,3.3-7.2,7-10.7,10.5-13.9,14.9-24,22.8-45.3,23.5-3.5,0-12.1-.2-15.4-1.9,23.7,17.6,60.1,23,79,21.8,19.9-1.2,43.3-9.7,49.7-25.4-12.6-9.4-16.6,6-26.7.9-10.1-5.1-3.9-17.3,5.8-24.8,9.6-7.5,16.4-6.8,19.9-5.3,5.5,2.3,5.7,6.6,5.4,7.7-.4,1.4-1.5,2.3-2.6,3.2,3.1-.5,5.1-1.2,7.4-3.6,1.9-2.6,2.3-5.6,1.7-8.7ZM106.9,66.8h0c.7,1.2.9,2.3.5,2.9-.4.6-1.3,1-2.4,1s-2.6-.5-3.6-1.4c-.2-.2-2.2-2-3.5-5.4,0-2,.4-4,.7-6.1.3.3.7.6,1,1,2.5,2.3,5.4,4.9,7.2,8ZM20.1,118.3h0c-2.8.6-5.1.9-6.9.9s-2.4-.3-2.6-.5c0-.3.7-1.2,2.3-2,6.9-3.7,16.1-10,23.6-17.6-.2.9-.5,1.8-.8,2.7v.6c-1.2,3.8-2.4,7.7-3.1,11.6-2.8,1.7-6.9,3.1-12.4,4.3ZM41.2,104v-.2h0c1.3-4.6,2.6-8.8,3-12.7v-1.2c.3-6.2,1.2-16.5,2.8-30.8l.5-4.9-4.6,1.8c-1.4.5-3,1.4-4.8,2.7-9.9,6.9-17.9,10.3-23.9,10.3h-1.3c-1.8-.2-2.8-1.2-3.1-3-.4-3.4,2.5-6.4,8.9-8.8,2.4-.9,5.9-3.2,10.5-6.9,3.8-3.1,7-5.5,9.6-7.3.7-.5,1.9-1.1,3.6-1.8,2.8-1.2,4.8-2.4,6-3.6,2-2,3.4-4.9,4.1-8.7,1.1-5.9,2.6-10.1,4.4-12.8,2-3,5.4-5.5,10.2-7.5,4-1.7,8.6-2.5,13.7-2.5,7.5,0,13.8,1.5,18.7,4.6,3.3,2.1,5.8,5.3,7.5,9.6,1.5,3.8,2,7.2,1.6,10.3-.7,5.5-4.5,10.3-11.2,14.3-6.7,2.5-15.2,2.7-25.4.6,4,2,9.5,3.5,15,3.5s5-.3,7.2-.8c-.2.9-.4,1.7-.5,2.6v.2c-.2.9-.4,1.9-.6,2.8,0,.3-.1.5-.2.8-.2,1-.4,2-.5,3v.4c-1,7.1-1,13.3,0,18.8v.5l.6.8.4.7c1.4,2.2,3.9,4.4,7.4,6.7h.3c2.9,1.8,4.8,3.4,5.6,4.8.6.9.8,2.5.6,4.7-5.4-.3-11,0-16.4.5-4.1.4-8.3,1.4-12.7,2.9,0-.5,0-.9,0-1.4,0-6.1.9-9.4,6.1-12-14.8,3.5-12.4,8.8-16.5,16.1-.4.7-.6,1.4-.7,2-9.1,4.4-18.1,10.3-26.2,16.4-.9.7-2,1.5-3,2.3,0-4.3,1-10.3,3.3-17.8ZM77,142.3h0c-9.5,11.2-25.5,18.5-41.5,17.3-7.7-.6-12.8-1.7-13.9-2.7,12.3,1.4,26.9-3,32.6-6.7,5.8-3.7,12.7-12.4,16.5-15,3.8-2.6,6-2,7.2-1.1,2.2,1.4,1.6,5.2-1,8.2Z"/>
  </g>
</svg>