<svg width="142" height="173" xmlns="http://www.w3.org/2000/svg" xmlns:xlink="http://www.w3.org/1999/xlink" xml:space="preserve" overflow="hidden"><defs><clipPath id="clip0"><rect x="438" y="273" width="142" height="173"/></clipPath><clipPath id="clip1"><rect x="438" y="273" width="142" height="173"/></clipPath><clipPath id="clip2"><rect x="439" y="274" width="140" height="172"/></clipPath><clipPath id="clip3"><rect x="439" y="274" width="140" height="172"/></clipPath><clipPath id="clip4"><rect x="439" y="274" width="402" height="172"/></clipPath></defs><g clip-path="url(#clip0)" transform="translate(-438 -273)"><g clip-path="url(#clip1)"><g clip-path="url(#clip2)"><g clip-path="url(#clip3)"><g clip-path="url(#clip4)"><path d="M208.182 55.6211 235.794 55.6211 234.503 66.2487 209.87 66.2487C204.209 66.2487 199.441 70.4203 198.746 76.0817L197.256 87.9012 228.444 87.9012 227.153 98.5288 195.965 98.5288 190.999 138.854C190.502 143.125 186.927 146.303 182.656 146.303L178.683 146.303 187.622 73.8966C188.913 63.567 197.654 55.7204 208.182 55.7204Z" fill="#000000" fill-rule="nonzero" fill-opacity="1" transform="matrix(1.00259 0 0 1 439 274.085)"/><path d="M234.205 128.326 243.044 55.6211 254.169 55.6211 245.329 128.326 234.205 128.326Z" fill="#000000" fill-rule="nonzero" fill-opacity="1" transform="matrix(1.00259 0 0 1 439 274.085)"/><path d="M292.11 117.698 297.374 74.3932 308.498 74.3932 301.943 128.326 277.609 128.326C264.2 128.326 257.546 122.168 257.546 109.951 257.546 97.7342 257.645 106.872 257.844 105.084L261.618 74.3932 272.742 74.3932 268.968 105.382C268.868 106.177 268.769 107.369 268.769 108.858 268.769 112.235 269.564 114.52 271.153 115.811 272.742 117.102 275.324 117.698 278.9 117.698L292.209 117.698Z" fill="#000000" fill-rule="nonzero" fill-opacity="1" transform="matrix(1.00259 0 0 1 439 274.085)"/><path d="M325.185 128.723C319.225 128.624 314.16 128.326 309.79 127.929L310.684 121.472C310.982 119.287 312.968 117.698 315.252 117.897 319.722 118.294 323.496 118.493 326.476 118.592L329.754 118.592C333.925 118.592 336.806 118.095 338.395 117.003 339.984 116.01 341.076 114.52 341.474 112.533 341.474 112.235 341.573 111.739 341.573 111.143 341.573 109.554 341.275 108.461 340.779 107.965 340.381 107.269 339.587 106.773 338.593 106.475 337.6 106.177 335.614 105.879 332.634 105.581L330.449 105.283C327.072 104.985 323.894 104.488 320.815 103.495 318.431 102.601 316.643 101.31 315.451 99.6214 314.259 97.9329 313.663 95.6484 313.663 92.768 313.663 89.8877 313.663 91.1789 313.862 89.7883 314.358 85.8154 315.451 82.7364 317.239 80.5513 319.027 78.3661 321.609 76.6776 324.787 75.7837 327.966 74.8898 332.137 74.2939 337.302 74.2939L354.982 74.2939C354.982 74.2939 354.187 80.9486 354.187 80.9486 353.889 83.0343 352.101 84.6235 350.016 84.6235L336.11 84.6235C333.23 84.6235 331.144 84.6235 329.654 85.0208 328.164 85.4181 327.072 85.8154 326.377 86.5107 325.681 87.2059 325.284 88.1992 325.085 89.4904 325.085 89.7883 324.986 90.285 324.986 90.7816 324.986 91.7748 325.284 92.6687 325.88 93.364 326.476 94.1586 327.469 94.6552 328.76 94.9531 330.052 95.2511 332.336 95.5491 335.812 95.9464 339.885 96.3437 343.162 96.9396 345.745 97.8335 348.029 98.6281 349.718 99.9193 350.909 101.806 352.101 103.694 352.697 106.077 352.697 109.057 352.697 112.037 352.697 111.54 352.499 112.335 351.704 118.294 349.42 122.565 345.745 124.949 341.97 127.333 336.21 128.624 328.462 128.624L325.185 128.624Z" fill="#000000" fill-rule="nonzero" fill-opacity="1" transform="matrix(1.00259 0 0 1 439 274.085)"/><path d="M370.874 128.723C364.914 128.624 359.849 128.326 355.478 127.929L356.372 121.472C356.67 119.287 358.657 117.698 360.941 117.897 365.411 118.294 369.185 118.493 372.165 118.592L375.442 118.592C379.614 118.592 382.494 118.095 384.084 117.003 385.673 116.01 386.765 114.52 387.163 112.533 387.163 112.235 387.262 111.739 387.262 111.143 387.262 109.554 386.964 108.461 386.467 107.965 386.07 107.269 385.275 106.773 384.282 106.475 383.289 106.177 381.302 105.879 378.323 105.581L376.138 105.283C372.761 104.985 369.582 104.488 366.503 103.495 364.12 102.601 362.332 101.31 361.14 99.6214 359.948 97.9329 359.352 95.6484 359.352 92.768 359.352 89.8877 359.352 91.1789 359.551 89.7883 360.047 85.8154 361.14 82.7364 362.928 80.5513 364.715 78.3661 367.298 76.6776 370.476 75.7837 373.655 74.8898 377.826 74.2939 382.991 74.2939L400.671 74.2939C400.671 74.2939 399.876 80.9486 399.876 80.9486 399.578 83.0343 397.79 84.6235 395.704 84.6235L381.799 84.6235C378.919 84.6235 376.833 84.6235 375.343 85.0208 373.853 85.4181 372.761 85.8154 372.065 86.5107 371.37 87.2059 370.973 88.1992 370.774 89.4904 370.774 89.7883 370.675 90.285 370.675 90.7816 370.675 91.7748 370.973 92.6687 371.569 93.364 372.165 94.1586 373.158 94.6552 374.449 94.9531 375.74 95.2511 378.025 95.5491 381.501 95.9464 385.573 96.3437 388.851 96.9396 391.433 97.8335 393.718 98.6281 395.406 99.9193 396.598 101.806 397.79 103.694 398.386 106.077 398.386 109.057 398.386 112.037 398.386 111.54 398.187 112.335 397.393 118.294 395.108 122.565 391.433 124.949 387.659 127.333 381.898 128.624 374.151 128.624L370.874 128.624Z" fill="#000000" fill-rule="nonzero" fill-opacity="1" transform="matrix(1.00259 0 0 1 439 274.085)"/><path d="M83.8289 40.3253C87.4046 40.3253 87.9012 39.4314 89.1924 38.2395 90.3843 37.1469 91.2782 37.7429 91.7748 38.0409 92.768 38.8354 94.7545 39.4314 96.3437 39.4314 97.9329 39.4314 101.111 37.9415 100.813 37.3456 100.317 36.253 98.2308 37.8422 96.6417 37.8422 93.2647 37.8422 91.5762 35.9551 91.8741 34.8625L91.8741 34.8625C93.9599 32.2801 96.443 30.4923 96.5423 29.1017 96.5423 27.7112 91.8741 25.6254 89.987 25.9234 88.0998 26.2214 83.7296 29.1017 83.8289 30.6909 83.9283 32.2801 87.5039 33.77 89.2917 35.0612 89.0931 36.849 86.1134 38.6368 83.9283 38.6368 81.7431 38.6368 77.4722 36.9483 77.2736 37.7429 76.9756 38.7361 80.3526 40.3253 83.9283 40.3253Z" fill="#000000" fill-rule="nonzero" fill-opacity="1" transform="matrix(1.00259 0 0 1 439 274.085)"/><path d="M72.804 27.4133C74.0952 27.4133 75.0885 26.0227 75.0885 24.2349 75.0885 22.4471 74.0952 21.0566 72.804 21.0566 71.5128 21.0566 70.5196 22.4471 70.5196 24.2349 70.5196 26.0227 71.5128 27.4133 72.804 27.4133Z" fill="#000000" fill-rule="nonzero" fill-opacity="1" transform="matrix(1.00259 0 0 1 439 274.085)"/><path d="M102.7 27.2146C103.892 27.2146 104.786 25.9234 104.786 24.2349 104.786 22.5464 103.892 21.2552 102.7 21.2552 101.508 21.2552 100.615 22.5464 100.615 24.2349 100.615 25.9234 101.508 27.2146 102.7 27.2146Z" fill="#000000" fill-rule="nonzero" fill-opacity="1" transform="matrix(1.00259 0 0 1 439 274.085)"/><path d="M138.457 115.91C137.464 110.249 134.186 104.885 129.617 101.707 124.552 98.1315 118.791 96.0457 112.732 95.0525 112.931 91.4768 112.434 88.6958 111.342 86.7093 110.05 84.5242 107.567 82.2398 103.892 79.856 101.111 78.0682 99.2241 76.479 98.2308 75.0885L97.9329 74.5919 97.9329 74.0952C99.9193 75.4858 102.303 76.3797 104.687 76.3797 107.071 76.3797 110.845 74.8898 112.235 72.3074 112.931 71.1155 114.222 67.7385 111.639 63.3683 109.355 59.594 106.077 56.515 103.396 54.1312 102.005 52.84 100.615 51.6482 99.7207 50.5556 99.7207 50.357 99.7207 50.2576 99.7207 50.059 108.461 45.0928 113.328 38.8354 114.321 31.1875L114.023 31.1875C114.321 28.4065 114.123 25.5261 113.427 22.5464 115.314 20.9572 115.811 18.4741 114.52 16.885 113.725 15.8917 112.335 15.4944 111.044 15.6931 108.858 11.2235 105.978 7.84655 102.204 5.46279 96.3437 1.78782 89.0931 0 80.4519 0 71.8108 0 69.3277 0.993234 64.5602 2.9797 58.7001 5.46279 54.4292 8.64113 51.8468 12.6141 51.8468 12.6141 51.8468 12.7134 51.8468 12.8127 49.761 11.6208 47.1786 11.8195 45.7881 13.4087 44.0996 15.2958 44.6955 18.4741 46.98 20.4606 47.3773 20.7586 47.7745 21.0566 48.2712 21.2552 47.6752 23.1423 47.1786 25.2281 46.7813 27.5126 46.2847 30.095 45.4901 31.8828 44.2982 33.0747 43.1063 34.2666 42.2124 34.5645 40.1266 35.4584 38.1402 36.3524 36.551 37.1469 35.5578 37.8422 32.876 39.63 29.499 42.1131 25.6254 45.3908 21.5532 48.6685 18.6728 50.6549 16.885 51.3502 11.5215 53.3367 7.84655 56.0184 5.86008 59.3954 4.46955 61.6798 3.97294 64.0636 4.27091 66.4473 4.56888 68.6325 5.46279 70.5196 7.05196 72.0095 8.64113 73.4993 10.5283 74.3932 12.7134 74.5919L14.6005 74.5919C21.5532 74.5919 30.1943 71.1155 40.5239 64.0636 39.5307 73.7973 38.8354 81.3458 38.4381 86.7093 31.3862 97.2376 18.8714 106.276 10.131 110.845 6.05873 113.03 3.97294 116.407 4.76752 119.585 5.26414 121.472 6.95264 124.552 13.21 124.552 19.4674 124.552 18.1762 124.154 21.3545 123.459 25.6254 122.565 29.0024 121.472 31.8828 120.281 31.8828 122.068 31.8828 123.558 32.1808 125.048 23.2417 131.306 11.5215 138.159-0.198647 140.344L0.0993234 140.344C7.94587 141.933 19.666 143.026 26.9166 141.238 37.5442 138.655 48.9664 127.333 63.3683 115.513 69.6257 110.448 77.7702 106.177 86.61 103.594 88.1992 103.197 89.7883 102.899 91.5762 102.502 97.4362 101.409 102.402 100.813 106.574 100.714L107.369 100.714C112.533 100.813 117.599 101.707 122.366 103.296 128.028 105.283 131.008 109.156 131.008 109.256 129.319 108.163 127.531 106.971 125.743 106.177 117.301 102.303 107.17 102.204 98.1315 104.29 96.8403 104.588 95.6484 104.885 94.3572 105.283 93.1653 105.68 91.8741 106.077 90.6823 106.475 89.4904 106.872 88.2985 107.369 87.1066 107.865 85.9147 108.362 84.7228 108.958 83.6303 109.454 82.4384 110.05 81.3458 110.646 80.2533 111.342 79.1607 112.037 78.0682 112.633 76.9756 113.427 75.8831 114.123 74.8898 114.917 73.7973 115.612 72.804 116.407 71.7115 117.202 70.8176 117.996 67.0433 121.274 63.6663 124.949 60.19 128.425 46.384 143.224 36.3524 151.071 15.1965 151.766 11.7202 151.766 3.17835 151.567-0.0993234 149.879 23.4403 167.36 59.594 172.723 78.3661 171.531 98.1315 170.34 121.373 161.897 127.73 146.303 115.215 136.967 111.242 152.263 101.211 147.197 91.1789 142.132 97.3369 130.014 106.971 122.565 116.506 115.116 123.26 115.811 126.737 117.301 132.199 119.585 132.398 123.856 132.1 124.949 131.703 126.339 130.61 127.233 129.518 128.127 132.597 127.631 134.583 126.935 136.868 124.552 138.755 121.969 139.152 118.989 138.556 115.91ZM106.177 66.348C106.872 67.5399 107.071 68.6325 106.673 69.2284 106.276 69.8243 105.382 70.2216 104.29 70.2216 103.197 70.2216 101.707 69.725 100.714 68.8311 100.515 68.6325 98.5288 66.8446 97.2376 63.4676 97.2376 61.4812 97.6349 59.4947 97.9329 57.4089 98.2308 57.7069 98.6281 58.0049 98.9261 58.4021 101.409 60.6866 104.29 63.269 106.077 66.348ZM19.964 117.5C17.1829 118.095 14.8985 118.393 13.1107 118.393 11.3229 118.393 10.7269 118.095 10.5283 117.897 10.5283 117.599 11.2235 116.705 12.8127 115.91 19.666 112.235 28.8038 105.978 36.253 98.4295 36.0544 99.3234 35.7564 100.217 35.4584 101.111L35.4584 101.707C34.2666 105.481 33.0747 109.355 32.3794 113.229 29.5984 114.917 25.5261 116.308 20.0633 117.5ZM40.9212 103.296 40.9212 103.098C42.2124 98.5288 43.5036 94.3572 43.9009 90.4836L43.9009 89.2917C44.1989 83.1337 45.0928 72.9034 46.682 58.7001L47.1786 53.8333 42.6097 55.6211C41.2192 56.1177 39.63 57.0116 37.8422 58.3028 28.0092 65.1561 20.0633 68.5331 14.1039 68.5331L12.8127 68.5331C11.0249 68.3345 10.0317 67.3413 9.73369 65.5534 9.3364 62.1764 12.2168 59.1967 18.5735 56.813 20.9572 55.9191 24.4336 53.6346 29.0024 49.9597 32.7767 46.8806 35.9551 44.4969 38.5375 42.7091 39.2327 42.2124 40.4246 41.6165 42.1131 40.9212 44.8942 39.7294 46.8806 38.5375 48.0725 37.3456 50.059 35.3591 51.4495 32.4787 52.1448 28.7045 53.2373 22.8444 54.7272 18.6728 56.515 15.9911 58.5015 13.0114 61.8785 10.5283 66.646 8.54181 70.6189 6.85331 75.1878 6.05873 80.2533 6.05873 87.7025 6.05873 93.9599 7.54858 98.8268 10.6276 102.104 12.7134 104.588 15.8917 106.276 20.1626 107.766 23.9369 108.262 27.3139 107.865 30.393 107.17 35.8557 103.396 40.6233 96.741 44.5962 90.0863 47.0793 81.6438 47.2779 71.5128 45.1921 75.4858 47.1786 80.9486 48.6685 86.4113 48.6685 91.8741 48.6685 91.3775 48.3705 93.5626 47.8739 93.364 48.7678 93.1653 49.5624 93.066 50.4563L93.066 50.6549C92.8674 51.5488 92.6687 52.5421 92.4701 53.436 92.4701 53.7339 92.3707 53.9326 92.2714 54.2306 92.0728 55.2238 91.8741 56.217 91.7748 57.2103L91.7748 57.6076C90.7816 64.6595 90.7816 70.8176 91.7748 76.2804L91.7748 76.777 92.3707 77.5716 92.768 78.2668C94.1586 80.4519 96.6417 82.637 100.118 84.9215L100.416 84.9215C103.296 86.7093 105.183 88.2985 105.978 89.689 106.574 90.5829 106.773 92.1721 106.574 94.3572 101.211 94.0592 95.6484 94.3572 90.285 94.8538 86.2127 95.2511 82.0411 96.2444 77.6709 97.7342 77.6709 97.2376 77.6709 96.8403 77.6709 96.3437 77.6709 90.285 78.5648 87.0073 83.7296 84.4249 69.0297 87.9012 71.4135 93.1653 67.3413 100.416 66.944 101.111 66.7453 101.806 66.646 102.402 57.6076 106.773 48.6685 112.633 40.6233 118.691 39.7294 119.387 38.6368 120.181 37.6436 120.976 37.6436 116.705 38.6368 110.746 40.9212 103.296ZM76.479 141.337C67.0433 152.461 51.1515 159.712 35.2598 158.52 27.6119 157.924 22.5464 156.832 21.4538 155.838 33.6706 157.229 48.1718 152.859 53.8333 149.184 59.594 145.509 66.4473 136.868 70.2216 134.285 73.9959 131.703 76.181 132.299 77.3729 133.193 79.558 134.583 78.9621 138.357 76.3797 141.337Z" fill="#000000" fill-rule="nonzero" fill-opacity="1" transform="matrix(1.00259 0 0 1 439 274.085)"/></g></g></g></g></g></svg>