<svg width="142" height="173" xmlns="http://www.w3.org/2000/svg" xmlns:xlink="http://www.w3.org/1999/xlink" xml:space="preserve" overflow="hidden"><defs><clipPath id="clip0"><rect x="438" y="273" width="142" height="173"/></clipPath><clipPath id="clip1"><rect x="438" y="273" width="142" height="173"/></clipPath><clipPath id="clip2"><rect x="439" y="274" width="140" height="172"/></clipPath><clipPath id="clip3"><rect x="439" y="274" width="140" height="172"/></clipPath><clipPath id="clip4"><rect x="439" y="274" width="401" height="172"/></clipPath><linearGradient x1="59.1284" y1="1.49013" x2="59.1284" y2="126.125" gradientUnits="userSpaceOnUse" spreadMethod="pad" id="fill5"><stop offset="0" stop-color="#FFFFFF" stop-opacity="1"/><stop offset="0.335714" stop-color="#FFFFFF" stop-opacity="1"/><stop offset="1" stop-color="#96A1FF" stop-opacity="1"/></linearGradient><linearGradient x1="69.5393" y1="92.8848" x2="69.5393" y2="170.372" gradientUnits="userSpaceOnUse" spreadMethod="pad" id="fill6"><stop offset="0" stop-color="#002CDC" stop-opacity="1"/><stop offset="1" stop-color="#3B5FEE" stop-opacity="1"/></linearGradient></defs><g clip-path="url(#clip0)" transform="translate(-438 -273)"><g clip-path="url(#clip1)"><g clip-path="url(#clip2)"><g clip-path="url(#clip3)"><g clip-path="url(#clip4)"><path d="M52.9757 21.9073C52.9757 24.932 50.9249 27.3841 48.3951 27.3841 45.8653 27.3841 43.8145 24.932 43.8145 21.9073 43.8145 18.8825 45.8653 16.4304 48.3951 16.4304 50.9249 16.4304 52.9757 18.8825 52.9757 21.9073Z" fill="#000000" fill-rule="nonzero" fill-opacity="1" transform="matrix(0.651869 -0.759427 0.755198 0.65552 441.741 313.324)"/><path d="M113.487 21.6551C113.487 23.7445 111.481 25.4383 109.007 25.4383 106.532 25.4383 104.526 23.7445 104.526 21.6551 104.526 19.5657 106.532 17.8719 109.007 17.8719 111.481 17.8719 113.487 19.5657 113.487 21.6551Z" fill="#000000" fill-rule="nonzero" fill-opacity="1" transform="matrix(0.780616 -0.625011 0.62153 0.784988 450.596 343.571)"/><path d="M13.0436 119.965C9.01032 119.965 7.80828 118.505 7.50032 117.283 7.04335 115.445 8.52355 113.379 11.3548 111.879 20.9811 106.782 34.7499 96.6892 41.8528 85.0264L42.2999 84.2913 43.1641 84.3112C43.9489 84.331 44.6145 84.6887 45.0516 85.3145 46.2835 87.1226 45.2702 90.5101 42.6476 97.8018 41.6045 100.713 40.5216 103.723 40.3229 105.292 39.4587 111.998 33.5379 116.091 20.5241 118.972 17.5339 119.637 15.0205 119.965 13.0436 119.965Z" fill="#B0B7F3" fill-rule="nonzero" fill-opacity="1" transform="matrix(1 0 0 1.0056 439 274.337)"/><path d="M20.8462 120.426 20.8478 120.426C33.9051 117.535 40.8896 112.553 41.8013 105.479 41.9185 104.553 42.6566 102.193 44.0155 98.4017L44.0498 98.3062C46.7347 90.8412 47.4759 86.2263 46.2732 84.4613 45.5329 83.4012 44.5079 82.8546 43.1983 82.8214L41.4737 82.7818 40.5801 84.2513C37.4029 89.4682 32.7413 94.6414 26.5952 99.7709 21.455 104.061 16.1423 107.658 10.6572 110.562 6.90866 112.548 5.37473 114.91 6.05538 117.647 6.69524 120.186 9.02465 121.455 13.0436 121.455 15.164 121.455 17.7649 121.112 20.8462 120.426ZM38.8446 105.105C38.1118 110.79 31.8976 114.928 20.202 117.517L20.2003 117.517C17.3316 118.156 14.946 118.475 13.0436 118.475 10.5729 118.475 9.20676 117.956 8.94527 116.919 8.64105 115.695 9.67677 114.454 12.0524 113.195 17.7208 110.194 23.2049 106.482 28.5048 102.059 34.9035 96.7186 39.7771 91.2995 43.1255 85.8015L43.1259 85.8008 43.1299 85.8009C43.4311 85.8085 43.6644 85.9308 43.8299 86.1678 44.4488 87.0763 43.5873 90.7862 41.2453 97.2975L41.21 97.3962C39.7777 101.393 38.9893 103.962 38.8446 105.105Z" fill="#000000" fill-rule="evenodd" fill-opacity="1" transform="matrix(1 0 0 1.0056 439 274.337)"/><path d="M104.428 71.7651C102.461 71.7651 100.435 70.9902 98.8751 69.6391 98.1003 68.9735 91.3947 62.7647 93.4908 50.1284L94.1166 46.3434 96.2128 49.5621C97.2459 51.1615 99.1135 52.8702 101.09 54.6882 103.753 57.132 106.763 59.9036 108.819 63.3011 110.588 66.2317 109.942 68.2682 109.405 69.2219 108.501 70.8114 106.654 71.7651 104.438 71.7651L104.428 71.7651Z" fill="#B0B7F3" fill-rule="nonzero" fill-opacity="1" transform="matrix(1 0 0 1.0056 439 274.337)"/><path d="M104.428 73.2552 104.438 73.2552C107.363 73.2552 109.452 72.1543 110.704 69.9525 111.949 67.7402 111.745 65.2659 110.094 62.5295 108.642 60.1301 105.977 57.1507 102.099 53.5913L102.021 53.5195C99.5942 51.288 98.0744 49.6978 97.4614 48.7489L93.2722 42.3162 92.0207 49.8845C91.0867 55.5154 91.6657 60.5561 93.7578 65.0067 94.9147 67.4679 96.2953 69.3875 97.8995 70.7655 99.8156 72.4253 101.992 73.2552 104.428 73.2552ZM108.107 68.4913C107.43 69.6804 106.208 70.2749 104.438 70.2749L104.428 70.2749C102.733 70.2749 101.207 69.6875 99.8508 68.5128 98.5629 67.4065 97.4309 65.8152 96.4549 63.7388 94.6261 59.8483 94.128 55.3927 94.9608 50.3722L94.9611 50.3707 94.9641 50.3753C95.7105 51.5309 97.3904 53.3102 100.004 55.7132L100.082 55.785C103.752 59.1536 106.239 61.9161 107.544 64.0727 108.596 65.8154 108.783 67.2882 108.107 68.4913Z" fill="#000000" fill-rule="evenodd" fill-opacity="1" transform="matrix(1 0 0 1.0056 439 274.337)"/><path d="M35.138 123.84C33.4293 116.449 35.8135 108.581 38.1083 100.971 39.5488 96.1929 40.9197 91.6728 41.0886 87.7488 41.4561 79.2551 43.2443 62.7345 43.89 56.9528 42.9562 57.3104 41.5753 57.9959 39.7077 59.2774 35.8532 61.9398 24.1309 70.0361 14.3258 70.0361 13.7695 70.0361 13.2231 70.0063 12.7065 69.9567 9.74614 69.6686 7.40167 67.3638 7.0043 64.3538 6.77582 62.5954 6.86522 56.5554 17.7829 52.4725 20.8526 51.34 23.7236 49.0253 27.3595 46.0848 30.0914 43.8794 33.1909 41.376 37.1447 38.7235 38.456 37.8294 39.8666 37.2235 41.2276 36.6373 44.9828 35.0181 48.2213 33.6273 49.5922 26.5641 51.8572 14.9013 54.7382 8.91098 65.8545 4.23197 70.1064 2.44381 75.2026 1.49013 80.577 1.49013 88.1469 1.49013 95.6869 3.37763 100.753 6.52677 109.148 11.7522 111.94 23.1566 111.185 29.2165 110.291 36.389 105.899 41.7237 96.9784 46.4424 95.0213 54.1017 93.1736 64.8703 94.9319 74.0992 95.1207 74.4171 95.4485 74.9734 95.5181 75.0926 97.2565 77.6954 99.7004 79.2749 102.055 80.7949 104.489 82.3645 107.012 83.9937 108.602 86.6958 109.724 88.6628 109.953 91.7722 109.287 96.2128L109.108 97.4545 107.857 97.4843C100.237 97.6731 82.9506 98.8453 73.4045 104.299 63.8585 109.753 47.2676 117.065 37.5122 124.684L35.6645 126.125 35.138 123.85 35.138 123.84Z" fill="url(#fill5)" fill-rule="nonzero" transform="matrix(1 0 0 1.0056 439 274.337)"/><path d="M33.6479 124.006C32.5127 118.834 33.5172 111.034 36.6616 100.607L36.6816 100.541 36.7165 100.425C38.5324 94.4018 39.4935 90.155 39.5998 87.6847 39.8529 81.8352 40.6891 72.4415 42.1083 59.5037 41.6162 59.7971 41.097 60.1313 40.5508 60.5061 29.9144 67.8529 21.1727 71.5263 14.3258 71.5263 13.7496 71.5263 13.1623 71.4975 12.5639 71.4399 8.42595 71.0373 6.08031 68.7402 5.52699 64.5488 5.26251 62.5135 5.7334 60.5013 6.93964 58.5122 8.80916 55.4293 12.2496 52.9508 17.261 51.0767 19.1689 50.3728 22.2227 48.3226 26.4224 44.9261L26.4431 44.9095C30.358 41.7491 33.6485 39.2746 36.3145 37.486 37.2574 36.8431 38.6924 36.1067 40.6195 35.2768L40.6382 35.2687 40.6476 35.2647C42.8899 34.2977 44.4274 33.4025 45.2599 32.579 46.6188 31.2348 47.5753 29.1352 48.1294 26.2801 49.3791 19.8456 51.0591 15.0671 53.1695 11.9447 55.6824 8.22684 59.7181 5.19812 65.2765 2.85855 69.8078 0.952849 74.908 0 80.577 0 88.9094 0 95.8971 1.75373 101.54 5.26119 105.661 7.82626 108.744 11.7458 110.789 17.0199 112.513 21.4647 113.138 25.5917 112.663 29.4008 111.755 36.6833 106.955 42.6977 98.2624 47.4441 95.6879 57.7629 95.0499 66.4704 96.3484 73.5668L96.4481 73.7353 96.7797 74.2985C97.8324 75.8562 99.8602 77.6044 102.863 79.543 106.364 81.801 108.705 83.9334 109.886 85.9403 111.178 88.2046 111.47 91.7024 110.76 96.4337L110.404 98.9143 107.891 98.9741C92.4469 99.3567 81.1977 101.563 74.1437 105.593 72.1173 106.75 68.5316 108.65 63.3864 111.291 51.1268 117.583 42.8078 122.439 38.4295 125.858L34.7392 128.735 33.6479 124.021 33.6479 124.006ZM36.5917 123.512 36.5898 123.504C35.5136 118.849 36.4886 111.503 39.515 101.468L39.5349 101.401 39.5699 101.285C41.4578 95.0231 42.4603 90.5323 42.5773 87.8129 42.8449 81.6294 43.7761 71.3978 45.3709 57.1182L45.6426 54.6859 43.357 55.5612C42.0485 56.0624 40.551 56.8915 38.8646 58.0487 28.7328 65.0469 20.5532 68.546 14.3258 68.546 13.8449 68.546 13.3527 68.5218 12.8492 68.4734 10.2842 68.2238 8.82839 66.7856 8.48161 64.1588 7.93497 59.9519 11.2094 56.5217 18.3049 53.8681 20.5117 53.054 23.8423 50.8457 28.2965 47.2434L28.3151 47.2284C32.1617 44.1231 35.3817 41.7006 37.9749 39.961 38.7723 39.4173 40.0468 38.7683 41.7983 38.014L41.817 38.006 41.8277 38.0014C44.4141 36.8861 46.2569 35.7849 47.3558 34.6978 49.151 32.922 50.384 30.3054 51.055 26.848 52.2273 20.8116 53.7552 16.4001 55.6387 13.6135 57.8208 10.3852 61.4187 7.7158 66.4326 5.60539 70.5939 3.85531 75.3087 2.98026 80.577 2.98026 88.3423 2.98026 94.8055 4.58429 99.9667 7.79235 103.524 10.0064 106.205 13.4415 108.011 18.0975 109.553 22.0753 110.118 25.7202 109.705 29.0323 108.905 35.4503 104.431 40.8146 96.2816 45.1252L95.6981 45.4339 95.5346 46.0735C92.6859 57.2224 91.9971 66.6573 93.4681 74.3781L93.5169 74.634 93.8834 75.2533 94.2554 75.8851 94.279 75.9203C95.5537 77.8288 97.8762 79.871 101.247 82.0468 104.352 84.0496 106.376 85.8512 107.317 87.4513 108.255 89.0949 108.42 91.9417 107.813 95.9919L107.813 95.9948C91.8691 96.3904 80.1532 98.7274 72.6653 103.006 70.6777 104.141 67.1311 106.019 62.0256 108.639 49.5986 115.017 41.1217 119.974 36.595 123.51L36.5917 123.512Z" fill="#000000" fill-rule="evenodd" fill-opacity="1" transform="matrix(1 0 0 1.0056 439 274.337)"/><path d="M78.4802 81.8446C70.5328 82.838 65.5658 78.8646 65.5657 71.4138 65.5657 63.9631 66.5592 52.042 72.0229 43.5979 78.8179 37.4983 95.8948 40.9556 95.3682 44.0948 92.3881 49.5585 90.6103 62.9969 89.4078 71.4137 88.9111 74.8907 86.4276 80.8512 78.4802 81.8446Z" fill="#FFFFFF" fill-rule="nonzero" fill-opacity="1" transform="matrix(1 0 0 1.0056 439 274.337)"/><path d="M91.792 33.4189C93.8782 30.836 96.3618 29.0479 96.4611 27.6571 96.5605 26.2663 91.792 24.1801 89.9045 24.4781 88.017 24.7762 83.646 27.6571 83.7453 29.2465 83.8447 30.836 87.421 32.3261 89.2091 33.6176 89.0105 35.4057 86.0799 37.1641 83.8347 37.1641 80.8346 37.1641 77.3775 35.4753 77.1689 36.27 76.9007 37.3131 80.2485 38.8827 83.8347 38.8827 86.3382 38.8827 87.8978 37.9886 89.1893 36.8263 90.3913 35.7534 91.3053 36.2998 91.7225 36.6376 92.6961 37.4323 94.673 37.9886 96.2724 37.9886 98.1003 37.9886 101.031 36.5283 100.753 35.8826 100.306 34.8196 98.14 36.3991 96.5307 36.3991 93.1828 36.3991 91.4741 34.5116 91.7722 33.4189L91.792 33.4189Z" fill="#000000" fill-rule="nonzero" fill-opacity="1" transform="matrix(1 0 0 1.0056 439 274.337)"/><path d="M75.1026 22.7291C75.1026 24.4848 74.0796 25.9081 72.8177 25.9081 71.5558 25.9081 70.5328 24.4848 70.5328 22.7291 70.5328 20.9735 71.5558 19.5502 72.8177 19.5502 74.0796 19.5502 75.1026 20.9735 75.1026 22.7291Z" fill="#000000" fill-rule="nonzero" fill-opacity="1" transform="matrix(1 0 0 1.0056 439 274.337)"/><path d="M104.796 22.7293C104.796 24.3753 103.862 25.7096 102.71 25.7096 101.558 25.7096 100.624 24.3753 100.624 22.7293 100.624 21.0834 101.558 19.7491 102.71 19.7491 103.862 19.7491 104.796 21.0834 104.796 22.7293Z" fill="#000000" fill-rule="nonzero" fill-opacity="1" transform="matrix(1 0 0 1.0056 439 274.337)"/><path d="M78.5001 104.945C76.8311 105.528 73.2714 106.905 67.8208 109.078 67.4168 107.919 67.632 106.445 68.4665 104.657 72.5396 97.4049 70.1553 92.1397 84.858 88.6628 79.6922 91.2457 78.8975 94.5239 78.7981 100.584 78.8114 102.259 78.712 103.716 78.5001 104.955L78.5001 104.945Z" fill="#000000" fill-rule="nonzero" fill-opacity="1" transform="matrix(1 0 0 1.0056 439 274.337)"/><path d="M1.12755e-05 139.016C7.84278 140.531 19.5773 141.64 26.8683 139.857 37.4502 137.272 48.9681 125.972 63.3234 114.137 77.6788 102.301 102.567 95.1505 122.322 101.935 128.026 103.896 130.943 107.818 130.943 107.917 129.268 106.827 127.495 105.639 125.72 104.847 117.247 100.984 107.099 100.885 98.1331 102.965 96.8522 103.262 95.6699 103.559 94.389 103.955 93.2068 104.351 91.9258 104.748 90.7436 105.144 89.5612 105.54 88.3789 106.035 87.1966 106.53 86.0142 107.025 84.8319 107.62 83.7481 108.115 82.5658 108.709 81.482 109.303 80.3982 109.997 79.3144 110.69 78.2306 111.284 77.1468 112.077 76.063 112.77 75.0777 113.562 73.9939 114.255 73.0086 115.048 71.9248 115.84 71.0381 116.632 67.2941 119.901 63.8456 123.565 60.3972 127.032 46.6033 141.789 36.5536 149.712 15.3703 150.405 11.9218 150.504 3.34994 150.207 0.0985445 148.524 23.6466 166.054 59.806 171.402 78.6247 170.214 98.4287 169.025 121.681 160.607 127.987 144.958 115.474 135.648 111.532 150.901 101.483 145.849 91.4332 140.798 97.6404 128.616 107.198 121.188 116.755 113.76 123.464 114.424 126.992 115.88 132.499 118.148 132.628 122.476 132.322 123.565 131.938 124.952 130.844 125.843 129.761 126.735 132.814 126.239 134.785 125.546 137.15 123.169 139.022 120.594 139.416 117.623 138.825 114.553 137.839 108.907 134.589 103.559 129.957 100.39 118.726 92.4665 104.409 92.1198 90.6056 93.5262 75.058 95.1109 56.1014 105.718 40.9479 117.385 31.775 124.447 16.0599 135.955 0 139.026L1.12755e-05 139.016ZM76.5556 140.006C67.097 151 51.2637 158.309 35.3712 157.14 27.6861 156.576 22.6613 155.456 21.5775 154.466 33.7949 155.853 48.2783 151.495 53.9929 147.83 59.7074 144.166 66.6044 135.549 70.3485 132.974 74.0925 130.399 76.26 130.993 77.5409 131.885 79.7085 133.271 79.1174 137.035 76.5556 140.006Z" fill="url(#fill6)" fill-rule="nonzero" transform="matrix(1 0 0 1.0056 439 274.337)"/><path d="M71.5263 45.2006C75.4999 47.1875 80.9638 48.6776 86.4276 48.6776 90.07 48.6776 93.3814 48.1808 96.3617 47.1874L98.8453 43.7105C91.8914 47.0219 82.785 47.5186 71.5263 45.2006Z" fill="#000000" fill-rule="nonzero" fill-opacity="1" transform="matrix(1 0 0 1.0056 439 274.337)"/></g></g></g></g></g></svg>