<?xml version="1.0" encoding="UTF-8"?><!--
  -  Copyright (c) 2025 Alibaba Group Holding Ltd.
  -
  -  Licensed under the Apache License, Version 2.0 (the "License");
  -  you may not use this file except in compliance with the License.
  -  You may obtain a copy of the License at
  -
  -      http://www.apache.org/licenses/LICENSE-2.0
  -
  -  Unless required by applicable law or agreed to in writing, software
  -  distributed under the License is distributed on an "AS IS" BASIS,
  -  WITHOUT WARRANTIES OR CONDITIONS OF ANY KIND, either express or implied.
  -  See the License for the specific language governing permissions and
  -  limitations under the License.
  -->

<svg id="_图层_2" xmlns="http://www.w3.org/2000/svg" viewBox="0 0 403.43 168.03"><defs><style>.cls-1{fill-rule:evenodd;}.cls-1,.cls-2{fill:#fff;}</style></defs><g id="_图层_1-2"><path class="cls-2" d="M209.62,52h27.84l-1.26,10.72h-24.82c-5.68,0-10.47,4.23-11.18,9.86l-1.49,11.88h31.35l-1.28,10.72h-31.37l-5.01,40.57c-.52,4.26-4.14,7.46-8.43,7.46h-3.99l8.96-72.93c1.27-10.44,10.14-18.29,20.67-18.29Z"/><path class="cls-2" d="M235.8,125.22l8.93-73.21h11.2l-8.92,73.21h-11.22.01Z"/><path class="cls-2" d="M294.1,114.51l5.27-43.59h11.2l-6.63,54.32h-24.48c-13.46,0-20.19-6.18-20.19-18.53,0-1.5.11-3.12.3-4.88l3.81-30.92h11.21l-3.8,31.2c-.13.84-.19,2.01-.19,3.51,0,3.38.79,5.72,2.38,7.02s4.17,1.95,7.76,1.95l13.35-.09h.01Z"/><path class="cls-2" d="M327.36,125.62c-5.98-.14-11.14-.39-15.49-.78l.9-6.53c.32-2.24,2.33-3.84,4.58-3.65,4.53.38,8.29.62,11.29.72h3.32c4.15,0,7.07-.53,8.73-1.56,1.65-1.04,2.68-2.54,3.08-4.49.06-.33.1-.78.1-1.36,0-1.62-.26-2.7-.78-3.23-.45-.72-1.2-1.2-2.23-1.47-1.04-.26-3.03-.56-5.96-.87l-2.23-.29c-3.38-.25-6.6-.84-9.66-1.75-2.4-.92-4.18-2.22-5.37-3.94-1.17-1.72-1.76-4-1.76-6.87,0-.58.06-1.59.2-3.01.45-3.96,1.59-7.06,3.42-9.31,1.82-2.25,4.35-3.86,7.61-4.83s7.44-1.47,12.57-1.47h4l13.76.11-.81,6.6c-.26,2.13-2.07,3.74-4.21,3.74h-13.98c-2.86,0-5.04.15-6.54.43-1.5.3-2.58.78-3.27,1.47s-1.12,1.68-1.32,2.97c-.06.33-.11.75-.11,1.27,0,1.04.3,1.92.87,2.62.64.78,1.61,1.32,2.88,1.61,1.26.29,3.63.63,7.07,1.02,4.1.39,7.44,1.01,10.05,1.86,2.28.78,4.01,2.12,5.22,4.01,1.2,1.89,1.8,4.32,1.8,7.32,0,1.42-.06,2.53-.2,3.31-.78,6.05-3.06,10.29-6.83,12.72-3.76,2.43-9.55,3.66-17.35,3.66h-3.32l-.02-.03Z"/><path class="cls-2" d="M373.37,125.62c-5.98-.14-11.14-.39-15.49-.78l.9-6.53c.32-2.24,2.33-3.84,4.58-3.65,4.53.38,8.29.62,11.29.72h3.32c4.15,0,7.07-.53,8.73-1.56,1.65-1.04,2.68-2.54,3.08-4.49.06-.33.11-.78.11-1.36,0-1.62-.25-2.7-.78-3.23-.45-.72-1.2-1.2-2.23-1.47-1.04-.26-3.03-.56-5.96-.87l-2.23-.29c-3.38-.25-6.6-.84-9.66-1.75-2.4-.92-4.18-2.22-5.37-3.94-1.17-1.72-1.76-4-1.76-6.87,0-.58.06-1.59.2-3.01.45-3.96,1.59-7.06,3.42-9.31,1.82-2.25,4.35-3.86,7.61-4.83s7.44-1.47,12.57-1.47h4l13.76.11-.81,6.6c-.26,2.13-2.07,3.74-4.21,3.74h-13.98c-2.86,0-5.04.15-6.54.43-1.5.3-2.58.78-3.27,1.47-.69.69-1.12,1.68-1.32,2.97-.06.33-.11.75-.11,1.27,0,1.04.3,1.92.87,2.62.64.78,1.61,1.32,2.88,1.61,1.26.29,3.63.63,7.07,1.02,4.1.39,7.44,1.01,10.05,1.86,2.28.78,4.01,2.12,5.22,4.01,1.2,1.89,1.8,4.32,1.8,7.32,0,1.42-.06,2.53-.2,3.31-.78,6.05-3.06,10.29-6.83,12.72-3.76,2.43-9.55,3.66-17.35,3.66h-3.32l-.02-.03Z"/><path class="cls-2" d="M53.66,10.23c-1.35,2.13-2.52,4.97-3.5,8.55-.7-.25-1.38-.65-2-1.18-2.3-1.99-2.81-5.16-1.15-7.08,1.54-1.78,4.42-1.87,6.65-.29Z"/><path class="cls-2" d="M113.24,18.6c-.27.21-.55.4-.84.54-.32-1.41-.77-2.85-1.34-4.33-.39-1.02-.83-1.98-1.3-2.9,1.7-.71,3.59-.4,4.64.91,1.31,1.64.79,4.23-1.16,5.78Z"/><path class="cls-2" d="M34.36,110.6c-.04.22-.07.43-.1.65-3.04,1.99-7.65,3.67-13.82,5.03-2.92.66-5.36.98-7.31.98-2.75,0-4.28-.65-4.61-1.94-.37-1.49.76-2.93,3.38-4.32,5.67-3,11.17-6.72,16.47-11.15,4.78-3.99,8.71-8.02,11.79-12.09-.39,2.58-1.29,6.24-2.72,10.98l-.04.11-.02.07c-1.56,5.17-2.56,9.07-3.02,11.68Z"/><path class="cls-2" d="M109.26,66.69c-.78,1.37-2.16,2.05-4.13,2.05h-.01c-1.83,0-3.48-.63-4.94-1.89-1.34-1.16-2.53-2.82-3.54-4.98-.26-.55-.49-1.11-.69-1.69.21-3.27.69-6.78,1.45-10.51.88.96,2.08,2.15,3.6,3.55l.08.07c3.73,3.42,6.27,6.24,7.6,8.45,1.16,1.92,1.35,3.57.58,4.95Z"/><path class="cls-1" d="M70,44.5c4,2,9.5,3.5,15,3.5,2.57,0,5.31-.25,8.21-.74.35-.06.7-.12,1.05-.19.35-.06.7-.13,1.05-.2v-.02h.01c.22-.03.44-.08.67-.13-.07.3-.13.59-.2.88-.43,1.95-.79,3.84-1.08,5.68-.22,1.45-.41,2.87-.54,4.25-.11,1-.19,1.98-.24,2.95-.25,4.3-.03,8.24.65,11.8l.03.17.33.55.36.62.02.03c1.24,1.86,3.53,3.87,6.87,6.02,3.19,2.06,5.28,3.93,6.27,5.61.67,1.17.97,2.88.91,5.13-5.49-.52-11.58-.44-18.27.24-3.5.37-7.23,1.16-11.19,2.4.7-2.74,2.22-4.66,5.51-6.3-9.76,2.31-12.04,5.4-13.63,9.33-2.01.86-4.07,1.82-6.18,2.88-8.31,4.17-16.64,9.48-25,15.91-1.61,1.24-3.2,2.43-4.76,3.56-.13-1.86-.04-3.87.25-6.02.07-.47.14-.95.22-1.43.01-.01.01-.03.01-.04.08-.48.19-1.02.32-1.6.52-2.44,1.41-5.73,2.65-9.84l.02-.07.03-.12c1.89-6.26,2.89-10.74,3.01-13.44.02-.44.04-.9.07-1.38.03-.66.08-1.36.13-2.1h0c.02-.35.04-.68.07-1.04.43-6.27,1.28-15.08,2.54-26.41l.19-1.63-1.54.59c-1.28.49-2.75,1.3-4.42,2.45-10.28,7.1-18.61,10.65-24.98,10.65-.5,0-1.01-.02-1.53-.07-2.85-.28-4.46-1.87-4.85-4.78-.19-1.47.17-2.95,1.08-4.45,1.59-2.61,4.63-4.76,9.13-6.44,2.17-.8,5.48-3,9.92-6.59l.02-.02c3.88-3.13,7.14-5.58,9.76-7.34.82-.56,2.13-1.23,3.93-2h.02s0-.01,0-.01c2.54-1.1,4.35-2.18,5.41-3.23,1.73-1.71,2.93-4.26,3.58-7.64.38-1.93.79-3.7,1.24-5.31.86-3.08,1.86-5.57,2.99-7.46.15-.25.3-.5.46-.73,2.25-3.34,5.95-6.08,11.09-8.25,4.25-1.78,9.06-2.68,14.43-2.68,7.91,0,14.51,1.64,19.78,4.92,3.01,1.87,5.4,4.58,7.19,8.11.4.8.77,1.63,1.11,2.51.55,1.42.98,2.81,1.28,4.15.59,2.51.73,4.87.46,7.1-.83,6.62-5.41,12.15-13.75,16.57-.01,0-.03.01-.05.02-.44.18-.9.36-1.36.52-.32.12-.64.23-.97.34-.03,0-.06.01-.08.02-.35.11-.71.22-1.07.32-6.56,1.84-14.45,1.81-23.65-.08Z"/><path d="M92.4,31.14c2.1-2.6,4.6-4.4,4.7-5.8.1-1.4-4.7-3.5-6.6-3.2-1.9.3-6.3,3.2-6.2,4.8.1,1.6,3.7,3.1,5.5,4.4-.2,1.8-3.15,3.57-5.41,3.57-3.02,0-6.5-1.7-6.71-.9-.27,1.05,3.1,2.63,6.71,2.63,2.52,0,4.09-.9,5.39-2.07,1.21-1.08,2.13-.53,2.55-.19.98.8,2.97,1.36,4.58,1.36,1.84,0,4.79-1.47,4.51-2.12-.45-1.07-2.63.52-4.25.52-3.37,0-5.09-1.9-4.79-3h.02Z"/><ellipse cx="73.3" cy="20.38" rx="2.3" ry="3.2"/><ellipse cx="103.39" cy="20.38" rx="2.1" ry="3"/><path class="cls-2" d="M0,137.44h0s.02.01.03,0h-.03ZM138.76,113c-1.03-5.9-3.86-10.44-8.51-13.62-5.01-3.54-11.35-5.79-19.02-6.75-.33-.05-.66-.09-.99-.12-.33-.04-.66-.08-1-.1-5.36-.52-11.34-.44-17.93.23-3.67.37-7.6,1.25-11.79,2.63-2.79.92-5.7,2.06-8.73,3.43-1.4.63-2.83,1.31-4.28,2.04-8.2,4.12-16.42,9.36-24.68,15.72-1.94,1.49-3.85,2.91-5.72,4.25-.3.22-.6.44-.9.65-.3.21-.6.42-.9.63-10.94,7.66-20.73,12.76-29.39,15.29,9.01,1.39,16.31,1.4,21.89.03,3.73-.91,8.12-3.16,13.16-6.75,3.14-2.24,8.18-6.3,15.13-12.2,3.49-2.97,6.16-5.21,8.01-6.74,7.16-5.9,15.7-10.16,25.62-12.76,1.09-.22,2.22-.42,3.39-.61,5.79-.95,11.28-1.49,16.48-1.62l2.1-.05h0c4.43.32,8.69,1.19,12.76,2.59,2.53.87,4.8,2.17,6.82,3.9,1.69,1.45,2.53,2.47,2.53,3.06,0,.07-.01.13-.02.2,0,.06-.03.12-.06.19-.02.06-.05.11-.09.17-.04.05-.08.1-.12.15-.05.05-.1.09-.15.12-.06.04-.12.07-.18.1-.06.02-.12.04-.18.05-.07.02-.13.02-.2.02-.2,0-.38-.05-.55-.16-.09-.06-.22-.15-.41-.27-2.09-1.36-3.66-2.28-4.71-2.74-7.87-3.6-16.92-4.21-27.13-1.84-1.43.33-2.67.66-3.7.98l-1.82.59-1.84.6c-.76.26-1.93.71-3.49,1.37-.5.21-1.26.55-2.27,1.03-.51.25-.9.43-1.15.54-1.25.63-2.33,1.24-3.27,1.84-.25.16-.62.39-1.11.69-.95.57-1.65,1.03-2.11,1.37-.02.01-.04.02-.05.03-.35.23-.87.58-1.55,1.07-.68.49-1.2.85-1.58,1.1-.23.18-.55.43-.99.77-.89.7-1.53,1.21-1.91,1.55-1.94,1.7-4.72,4.39-8.35,8.09-1.02,1.03-1.79,1.81-2.3,2.33-7.75,8.29-14.45,14.04-20.1,17.25-7.14,4.06-15.78,6.25-25.92,6.58-3.96.12-7.29,0-10.01-.38,9.89,6.31,21.93,11.15,36.15,14.5,13.8,3.25,26.29,4.53,37.44,3.82,10.83-.65,20.69-3.03,29.59-7.16,9.61-4.46,15.92-10.09,18.93-16.91-2.65-1.83-5.13-2.63-7.45-2.41-1.52.14-3.62.95-6.31,2.43-2.33,1.28-4.14,2.07-5.44,2.35-2.24.5-4.47.19-6.69-.93-5.25-2.63-6.92-6.87-5.03-12.72,1.6-4.93,5.13-9.53,10.61-13.79,7.91-6.14,14.88-7.97,20.92-5.48,2.64,1.09,4.44,2.7,5.41,4.83.7,1.53.88,2.9.54,4.1-.09.34-.24.69-.45,1.04,1.38-.57,2.58-1.36,3.58-2.35,1.57-2.19,2.06-4.8,1.47-7.84ZM78.05,130.26c2.19,1.4,1.59,5.18-.99,8.17-9.52,11.07-25.46,18.43-41.45,17.25-7.74-.57-12.8-1.69-13.89-2.69,12.3,1.4,26.88-2.99,32.63-6.68s12.7-12.36,16.46-14.95c3.77-2.6,5.96-2,7.24-1.1Z"/></g></svg>