<svg width="144" height="170" xmlns="http://www.w3.org/2000/svg" xmlns:xlink="http://www.w3.org/1999/xlink" xml:space="preserve" overflow="hidden"><defs><clipPath id="clip0"><rect x="650" y="282" width="144" height="170"/></clipPath><clipPath id="clip1"><rect x="650" y="282" width="144" height="170"/></clipPath><clipPath id="clip2"><rect x="651" y="283" width="143" height="168"/></clipPath><clipPath id="clip3"><rect x="651" y="283" width="143" height="168"/></clipPath></defs><g clip-path="url(#clip0)" transform="translate(-650 -282)"><g clip-path="url(#clip1)"><g clip-path="url(#clip2)"><g clip-path="url(#clip3)"><g><path d="M209.225 51.902 237.012 51.902 235.755 62.6018 210.982 62.6018C205.312 62.6018 200.531 66.8238 199.823 72.4432L198.335 84.3008 229.626 84.3008 228.349 95.0006 197.038 95.0006 192.037 135.494C191.518 139.746 187.905 142.94 183.623 142.94L179.641 142.94 188.584 70.1475C189.851 59.7272 198.705 51.892 209.215 51.892Z" fill="#FFFFFF" fill-rule="nonzero" fill-opacity="1" transform="matrix(1 0 0 1.00082 651.004 283.075)"/><path d="M235.355 124.984 244.269 51.9119 255.448 51.9119 246.544 124.984 235.345 124.984 235.355 124.984Z" fill="#FFFFFF" fill-rule="nonzero" fill-opacity="1" transform="matrix(1 0 0 1.00082 651.004 283.075)"/><path d="M293.546 114.294 298.806 70.7863 309.984 70.7863 303.367 125.004 278.933 125.004C265.499 125.004 258.781 118.836 258.781 106.509 258.781 105.012 258.891 103.395 259.081 101.638L262.883 70.7763 274.072 70.7763 270.28 101.917C270.15 102.756 270.09 103.924 270.09 105.421 270.09 108.795 270.878 111.13 272.465 112.428 274.052 113.725 276.628 114.374 280.211 114.374L293.536 114.284 293.546 114.284Z" fill="#FFFFFF" fill-rule="nonzero" fill-opacity="1" transform="matrix(1 0 0 1.00082 651.004 283.075)"/><path d="M326.743 125.383C320.774 125.243 315.624 124.994 311.282 124.605L312.18 118.087C312.5 115.851 314.506 114.254 316.752 114.444 321.273 114.823 325.026 115.063 328.02 115.162L331.334 115.162C335.476 115.162 338.391 114.633 340.048 113.605 341.695 112.567 342.723 111.07 343.122 109.124 343.182 108.795 343.222 108.345 343.222 107.766 343.222 106.15 342.962 105.072 342.443 104.543 341.994 103.824 341.245 103.345 340.217 103.075 339.179 102.816 337.193 102.516 334.269 102.207L332.043 101.917C328.669 101.668 325.455 101.079 322.401 100.171 320.006 99.2525 318.229 97.955 317.041 96.2382 315.873 94.5215 315.284 92.2458 315.284 89.3812 315.284 88.8023 315.344 87.7942 315.484 86.3769 315.933 82.4243 317.071 79.3302 318.898 77.0844 320.714 74.8386 323.239 73.2317 326.493 72.2635 329.747 71.2953 333.919 70.7963 339.04 70.7963L343.032 70.7963 356.766 70.9061 355.958 77.4936C355.698 79.6196 353.892 81.2266 351.756 81.2266L337.802 81.2266C334.947 81.2266 332.771 81.3763 331.274 81.6558 329.777 81.9552 328.699 82.4343 328.01 83.123 327.322 83.8117 326.893 84.7998 326.693 86.0874 326.633 86.4168 326.583 86.836 326.583 87.355 326.583 88.393 326.883 89.2714 327.452 89.9701 328.09 90.7486 329.058 91.2876 330.326 91.577 331.584 91.8665 333.949 92.2058 337.383 92.5951 341.475 92.9844 344.809 93.6032 347.414 94.4516 349.69 95.2301 351.416 96.5676 352.624 98.454 353.822 100.34 354.421 102.766 354.421 105.76 354.421 107.178 354.361 108.285 354.221 109.064 353.442 115.103 351.167 119.335 347.404 121.76 343.651 124.185 337.872 125.413 330.087 125.413L326.773 125.413 326.753 125.383Z" fill="#FFFFFF" fill-rule="nonzero" fill-opacity="1" transform="matrix(1 0 0 1.00082 651.004 283.075)"/><path d="M372.666 125.383C366.697 125.243 361.547 124.994 357.205 124.605L358.104 118.087C358.423 115.851 360.429 114.254 362.675 114.444 367.196 114.823 370.949 115.063 373.944 115.162L377.257 115.162C381.4 115.162 384.314 114.633 385.971 113.605 387.618 112.567 388.646 111.07 389.045 109.124 389.105 108.795 389.155 108.345 389.155 107.766 389.155 106.15 388.905 105.072 388.376 104.543 387.927 103.824 387.179 103.345 386.151 103.075 385.113 102.816 383.126 102.516 380.202 102.207L377.976 101.917C374.602 101.668 371.389 101.079 368.334 100.171 365.939 99.2525 364.162 97.955 362.974 96.2382 361.807 94.5215 361.218 92.2458 361.218 89.3812 361.218 88.8023 361.278 87.7942 361.417 86.3769 361.866 82.4243 363.004 79.3302 364.831 77.0844 366.647 74.8386 369.173 73.2317 372.427 72.2635 375.68 71.2953 379.853 70.7963 384.973 70.7963L388.965 70.7963 402.699 70.9061 401.891 77.4936C401.631 79.6196 399.825 81.2266 397.689 81.2266L383.735 81.2266C380.881 81.2266 378.705 81.3763 377.208 81.6558 375.71 81.9552 374.632 82.4343 373.944 83.123 373.255 83.8117 372.826 84.7998 372.626 86.0874 372.566 86.4168 372.516 86.836 372.516 87.355 372.516 88.393 372.816 89.2714 373.385 89.9701 374.024 90.7486 374.992 91.2876 376.259 91.577 377.517 91.8665 379.882 92.2058 383.316 92.5951 387.408 92.9844 390.742 93.6032 393.347 94.4516 395.623 95.2301 397.349 96.5676 398.557 98.454 399.755 100.34 400.354 102.766 400.354 105.76 400.354 107.178 400.294 108.285 400.154 109.064 399.376 115.103 397.1 119.335 393.337 121.76 389.584 124.185 383.805 125.413 376.02 125.413L372.706 125.413 372.686 125.383Z" fill="#FFFFFF" fill-rule="nonzero" fill-opacity="1" transform="matrix(1 0 0 1.00082 651.004 283.075)"/><path d="M53.5588 10.2107C52.2114 12.3367 51.0436 15.1713 50.0654 18.7446 49.3668 18.4951 48.688 18.0958 48.0692 17.5668 45.7735 15.5806 45.2645 12.4165 46.9214 10.5002 48.4585 8.72352 51.333 8.63369 53.5588 10.2107Z" fill="#FFFFFF" fill-rule="nonzero" fill-opacity="1" transform="matrix(1 0 0 1.00082 651.004 283.075)"/><path d="M113.027 18.5649C112.757 18.7745 112.478 18.9642 112.188 19.1039 111.869 17.6966 111.42 16.2593 110.851 14.7821 110.461 13.764 110.022 12.8058 109.553 11.8875 111.25 11.1789 113.136 11.4883 114.184 12.7958 115.492 14.4327 114.973 17.0179 113.027 18.5649Z" fill="#FFFFFF" fill-rule="nonzero" fill-opacity="1" transform="matrix(1 0 0 1.00082 651.004 283.075)"/><path d="M34.2952 110.391C34.2553 110.611 34.2254 110.821 34.1954 111.04 31.1611 113.027 26.5598 114.703 20.4015 116.061 17.487 116.72 15.0516 117.039 13.1052 117.039 10.3604 117.039 8.83332 116.39 8.50394 115.103 8.13463 113.615 9.2625 112.178 11.8776 110.791 17.5369 107.796 23.0265 104.083 28.3165 99.6618 33.0875 95.6793 37.0101 91.6569 40.0843 87.5946 39.695 90.1697 38.7967 93.8228 37.3694 98.5538L37.3295 98.6636 37.3095 98.7335C35.7525 103.894 34.7544 107.786 34.2952 110.391Z" fill="#FFFFFF" fill-rule="nonzero" fill-opacity="1" transform="matrix(1 0 0 1.00082 651.004 283.075)"/><path d="M109.054 66.5643C108.275 67.9317 106.898 68.6104 104.932 68.6104L104.922 68.6104C103.095 68.6104 101.448 67.9816 99.9911 66.724 98.6537 65.5662 97.4659 63.9093 96.4578 61.7534 96.1983 61.2044 95.9687 60.6455 95.7691 60.0665 95.9787 56.8027 96.4578 53.2993 97.2164 49.5764 98.0947 50.5345 99.2925 51.7223 100.81 53.1197L100.889 53.1895C104.612 56.6031 107.148 59.4178 108.475 61.6236 109.633 63.54 109.823 65.1869 109.054 66.5643Z" fill="#FFFFFF" fill-rule="nonzero" fill-opacity="1" transform="matrix(1 0 0 1.00082 651.004 283.075)"/><path d="M69.868 44.4161C73.8605 46.4123 79.3501 47.9095 84.8398 47.9095 87.4049 47.9095 90.1397 47.66 93.0343 47.1709 93.3836 47.111 93.733 47.0511 94.0823 46.9813 94.4316 46.9214 94.781 46.8515 95.1303 46.7816L95.1303 46.7617 95.1403 46.7617C95.3599 46.7317 95.5795 46.6818 95.809 46.6319 95.7392 46.9314 95.6793 47.2208 95.6094 47.5103 95.1802 49.4566 94.8209 51.343 94.5314 53.1796 94.3119 54.6268 94.1222 56.0441 93.9925 57.4215 93.8827 58.4197 93.8028 59.3978 93.7529 60.366 93.5034 64.6579 93.723 68.5904 94.4017 72.1437L94.4316 72.3134 94.761 72.8624 95.1203 73.4812 95.1403 73.5112C96.378 75.3676 98.6636 77.3739 101.997 79.5198 105.181 81.5759 107.267 83.4424 108.256 85.1192 108.924 86.287 109.224 87.9938 109.164 90.2396 103.684 89.7205 97.6056 89.8004 90.9283 90.4791 87.4349 90.8484 83.7119 91.6369 79.7594 92.8746 80.458 90.1397 81.9752 88.2234 85.259 86.5865 75.5174 88.8921 73.2417 91.9763 71.6547 95.8989 69.6484 96.7572 67.5923 97.7154 65.4863 98.7734 57.192 102.936 48.8777 108.236 40.5334 114.653 38.9265 115.891 37.3395 117.079 35.7824 118.207 35.6527 116.35 35.7425 114.344 36.0319 112.198 36.1018 111.729 36.1717 111.25 36.2515 110.771 36.2615 110.761 36.2615 110.741 36.2615 110.731 36.3414 110.252 36.4512 109.713 36.5809 109.134 37.0999 106.698 37.9883 103.415 39.2259 99.3124L39.2459 99.2426 39.2758 99.1228C41.1623 92.8746 42.1604 88.403 42.2801 85.7081 42.3001 85.2689 42.3201 84.8098 42.35 84.3307 42.38 83.672 42.4299 82.9733 42.4798 82.2347 42.4997 81.8853 42.5197 81.556 42.5496 81.1966 42.9788 74.9385 43.8272 66.1451 45.0848 54.8364L45.2745 53.2095 43.7374 53.7984C42.4598 54.2875 40.9926 55.0959 39.3257 56.2438 29.0651 63.3304 20.7508 66.8737 14.3928 66.8737 13.8938 66.8737 13.3847 66.8537 12.8657 66.8038 10.0211 66.5244 8.41411 64.9373 8.02484 62.0328 7.8352 60.5656 8.19452 59.0884 9.10281 57.5912 10.6898 54.9861 13.7241 52.8402 18.2156 51.1634 20.3815 50.3649 23.6853 48.169 28.1169 44.5858L28.1369 44.5658C32.0095 41.4417 35.2634 38.9963 37.8785 37.2397 38.6969 36.6807 40.0044 36.012 41.801 35.2434L41.821 35.2434C41.821 35.2434 41.821 35.2335 41.821 35.2335 44.3562 34.1355 46.1628 33.0576 47.2208 32.0095 48.9475 30.3028 50.1453 27.7576 50.7941 24.3839 51.1733 22.4576 51.5826 20.6909 52.0317 19.084 52.8901 16.0098 53.8882 13.5245 55.0161 11.638 55.1658 11.3885 55.3155 11.139 55.4752 10.9094 57.721 7.57569 61.414 4.84086 66.5443 2.67495 70.7863 0.898303 75.5872 6.64878e-15 80.9471 6.64878e-15 88.8422 6.64878e-15 95.4298 1.63691 100.69 4.91072 103.694 6.7772 106.08 9.48209 107.866 13.0054 108.266 13.8039 108.635 14.6324 108.974 15.5107 109.523 16.928 109.952 18.3154 110.252 19.6529 110.841 22.1581 110.98 24.5137 110.711 26.7395 109.882 33.347 105.311 38.8666 96.9868 43.2783 96.9768 43.2783 96.9569 43.2882 96.9369 43.2982 96.4977 43.4779 96.0386 43.6575 95.5795 43.8172 95.2601 43.937 94.9407 44.0468 94.6113 44.1566 94.5814 44.1566 94.5514 44.1666 94.5314 44.1766 94.1821 44.2864 93.8228 44.3961 93.4635 44.496 86.9158 46.3325 79.0407 46.3025 69.858 44.4161Z" fill="#FFFFFF" fill-rule="evenodd" fill-opacity="1" transform="matrix(1 0 0 1.00082 651.004 283.075)"/><path d="M92.2258 31.0813C94.3218 28.4862 96.8171 26.6896 96.9169 25.2922 97.0168 23.8949 92.2258 21.7988 90.3294 22.0983 88.433 22.3977 84.0413 25.2922 84.1411 26.8892 84.2409 28.4862 87.8341 29.9834 89.6307 31.2809 89.4311 33.0775 86.4866 34.8442 84.2309 34.8442 81.2166 34.8442 77.7432 33.1474 77.5336 33.9459 77.2641 34.9939 80.6277 36.5709 84.2309 36.5709 86.7462 36.5709 88.3132 35.6726 89.6107 34.5048 90.8185 33.4269 91.7367 33.9758 92.1559 34.3152 93.1341 35.1137 95.1203 35.6726 96.7273 35.6726 98.5638 35.6726 101.508 34.2054 101.229 33.5566 100.78 32.4886 98.6038 34.0756 96.9868 34.0756 93.6232 34.0756 91.9064 32.1792 92.2058 31.0813L92.2258 31.0813Z" fill="#000000" fill-rule="nonzero" fill-opacity="1" transform="matrix(1 0 0 1.00082 651.004 283.075)"/><path d="M75.4575 20.3416C75.4575 22.1056 74.4297 23.5355 73.1618 23.5355 71.8939 23.5355 70.8661 22.1056 70.8661 20.3416 70.8661 18.5776 71.8939 17.1476 73.1618 17.1476 74.4297 17.1476 75.4575 18.5776 75.4575 20.3416Z" fill="#000000" fill-rule="nonzero" fill-opacity="1" transform="matrix(1 0 0 1.00082 651.004 283.075)"/><path d="M105.291 20.3416C105.291 21.9953 104.353 23.3359 103.195 23.3359 102.037 23.3359 101.099 21.9953 101.099 20.3416 101.099 18.6878 102.037 17.3472 103.195 17.3472 104.353 17.3472 105.291 18.6878 105.291 20.3416Z" fill="#000000" fill-rule="nonzero" fill-opacity="1" transform="matrix(1 0 0 1.00082 651.004 283.075)"/><path d="M0 137.181 0 137.181C0 137.181 0.0199623 137.191 0.0299434 137.181L0 137.181ZM138.498 112.787C137.47 106.898 134.646 102.367 130.004 99.1926 125.004 95.6593 118.676 93.4136 111.02 92.4554 110.691 92.4055 110.362 92.3655 110.032 92.3356 109.703 92.2957 109.373 92.2557 109.034 92.2358 103.684 91.7168 97.7154 91.7966 91.1379 92.4654 87.4748 92.8347 83.5522 93.713 79.3701 95.0904 76.5854 96.0087 73.6808 97.1465 70.6565 98.5139 69.2592 99.1427 67.8319 99.8215 66.3846 100.55 58.2001 104.662 49.9956 109.892 41.7511 116.24 39.8148 117.728 37.9084 119.145 36.0419 120.482 35.7425 120.702 35.4431 120.922 35.1436 121.131 34.8442 121.341 34.5448 121.55 34.2453 121.76 23.3259 129.406 13.5544 134.496 4.91072 137.021 13.9037 138.409 21.19 138.419 26.7595 137.051 30.4824 136.143 34.8641 133.897 39.8946 130.314 43.0287 128.078 48.0592 124.026 54.9961 118.137 58.4795 115.172 61.1445 112.937 62.991 111.41 70.1375 105.521 78.6614 101.269 88.5627 98.6736 89.6507 98.454 90.7785 98.2544 91.9463 98.0648 97.7254 97.1166 103.205 96.5776 108.395 96.4478L110.491 96.3979C114.913 96.7173 119.165 97.5857 123.227 98.983 125.752 99.8514 128.018 101.149 130.034 102.876 131.721 104.323 132.56 105.341 132.56 105.93 132.56 106 132.55 106.06 132.54 106.13 132.54 106.189 132.51 106.249 132.48 106.319 132.46 106.379 132.43 106.429 132.39 106.489 132.35 106.539 132.31 106.589 132.27 106.639 132.22 106.688 132.17 106.728 132.12 106.758 132.061 106.798 132.001 106.828 131.941 106.858 131.881 106.878 131.821 106.898 131.761 106.908 131.691 106.928 131.631 106.928 131.562 106.928 131.362 106.928 131.182 106.878 131.013 106.768 130.923 106.708 130.793 106.619 130.603 106.499 128.517 105.141 126.95 104.223 125.902 103.764 118.047 100.171 109.014 99.562 98.8233 101.927 97.396 102.257 96.1584 102.586 95.1303 102.906L93.3137 103.495 91.4772 104.093C90.7187 104.353 89.5509 104.802 87.9938 105.461 87.4947 105.67 86.7362 106.01 85.7281 106.489 85.219 106.738 84.8298 106.918 84.5802 107.028 83.3326 107.657 82.2546 108.266 81.3164 108.864 81.0669 109.024 80.6976 109.254 80.2085 109.553 79.2603 110.122 78.5616 110.581 78.1025 110.92 78.0825 110.93 78.0626 110.94 78.0526 110.95 77.7032 111.18 77.1842 111.529 76.5055 112.018 75.8268 112.507 75.3078 112.867 74.9285 113.116 74.6989 113.296 74.3795 113.546 73.9403 113.885 73.052 114.584 72.4132 115.093 72.0339 115.432 70.0976 117.129 67.3228 119.814 63.6997 123.507 62.6816 124.535 61.9131 125.313 61.404 125.832 53.6686 134.107 46.9813 139.846 41.3419 143.05 34.2154 147.102 25.5917 149.288 15.4708 149.617 11.5182 149.737 8.19452 149.617 5.47965 149.238 15.351 155.536 27.3683 160.367 41.5615 163.711 55.3355 166.955 67.8019 168.232 78.9309 167.524 89.7405 166.875 99.5819 164.499 108.465 160.377 118.057 155.925 124.355 150.306 127.359 143.499 124.714 141.672 122.239 140.874 119.923 141.094 118.406 141.233 116.31 142.042 113.625 143.519 111.3 144.797 109.493 145.585 108.196 145.864 105.96 146.364 103.734 146.054 101.518 144.936 96.2782 142.311 94.6113 138.079 96.4977 132.24 98.0947 127.32 101.618 122.728 107.088 118.476 114.983 112.348 121.94 110.521 127.968 113.007 130.603 114.094 132.4 115.701 133.368 117.827 134.067 119.355 134.246 120.722 133.907 121.92 133.817 122.259 133.668 122.608 133.458 122.958 134.835 122.389 136.033 121.6 137.031 120.612 138.598 118.426 139.087 115.821 138.498 112.787ZM77.9029 130.014C80.0887 131.412 79.4899 135.185 76.9147 138.169 67.4127 149.218 51.5027 156.564 35.5429 155.387 27.8175 154.818 22.767 153.7 21.6791 152.702 33.9559 154.099 48.5084 149.717 54.2475 146.034 59.9867 142.351 66.9236 133.697 70.6765 131.112 74.4394 128.517 76.6253 129.116 77.9029 130.014Z" fill="#FFFFFF" fill-rule="nonzero" fill-opacity="1" transform="matrix(1 0 0 1.00082 651.004 283.075)"/></g></g></g></g></g></svg>