<svg width="142" height="173" xmlns="http://www.w3.org/2000/svg" xmlns:xlink="http://www.w3.org/1999/xlink" xml:space="preserve" overflow="hidden"><defs><clipPath id="clip0"><rect x="630" y="305" width="142" height="173"/></clipPath><clipPath id="clip1"><rect x="630" y="305" width="142" height="173"/></clipPath><clipPath id="clip2"><rect x="631" y="306" width="141" height="172"/></clipPath><clipPath id="clip3"><rect x="631" y="306" width="141" height="172"/></clipPath><clipPath id="clip4"><rect x="631" y="306" width="404" height="172"/></clipPath><linearGradient x1="59.4595" y1="1.49848" x2="59.4595" y2="126.831" gradientUnits="userSpaceOnUse" spreadMethod="pad" id="fill5"><stop offset="0" stop-color="#FFFFFF" stop-opacity="1"/><stop offset="0.0428571" stop-color="#FFFFFF" stop-opacity="1"/><stop offset="0.339519" stop-color="#FFFFFF" stop-opacity="1"/><stop offset="1" stop-color="#5F9DFA" stop-opacity="1"/></linearGradient></defs><g clip-path="url(#clip0)" transform="translate(-630 -305)"><g clip-path="url(#clip1)"><g clip-path="url(#clip2)"><g clip-path="url(#clip3)"><g clip-path="url(#clip4)"><path d="M53.1808 21.992C53.1808 25.0285 51.122 27.4901 48.5824 27.4901 46.0428 27.4901 43.9841 25.0285 43.9841 21.992 43.9841 18.9556 46.0428 16.494 48.5824 16.494 51.122 16.494 53.1808 18.9556 53.1808 21.992Z" fill="#FFFFFF" fill-rule="nonzero" fill-opacity="1" transform="matrix(0.653994 -0.756499 0.75766 0.652993 633.76 345.324)"/><path d="M113.942 21.742C113.942 23.8398 111.928 25.5404 109.444 25.5404 106.96 25.5404 104.946 23.8398 104.946 21.742 104.946 19.6442 106.96 17.9436 109.444 17.9436 111.928 17.9436 113.942 19.6442 113.942 21.742Z" fill="#FFFFFF" fill-rule="nonzero" fill-opacity="1" transform="matrix(0.78305 -0.622513 0.623468 0.781851 642.679 375.571)"/><path d="M13.1167 120.637C9.06078 120.637 7.85201 119.168 7.54233 117.94 7.08279 116.091 8.57128 114.014 11.4184 112.505 21.0986 107.38 34.9445 97.2307 42.0872 85.5026L42.5367 84.7634 43.4059 84.7833C44.1951 84.8033 44.8644 85.1629 45.3039 85.7923 46.5427 87.6105 45.5237 91.017 42.8864 98.3495 41.8375 101.277 40.7486 104.303 40.5488 105.882 39.6796 112.625 33.7257 116.741 20.639 119.638 17.6321 120.307 15.1046 120.637 13.1167 120.637Z" fill="#84B5FF" fill-rule="nonzero" fill-opacity="1" transform="matrix(1.00153 0 0 1 631 306.337)"/><path d="M20.9629 121.101 20.9646 121.101C34.095 118.194 41.1185 113.183 42.0354 106.07 42.1533 105.138 42.8955 102.766 44.262 98.9527L44.2964 98.8567C46.9964 91.3499 47.7417 86.7091 46.5324 84.9343 45.7879 83.8683 44.7571 83.3186 43.4402 83.2853L41.706 83.2454 40.8074 84.7232C37.6124 89.9692 32.9246 95.1714 26.7441 100.33 21.5751 104.644 16.2327 108.261 10.7168 111.181 6.94735 113.178 5.40483 115.553 6.08929 118.306 6.73274 120.859 9.07519 122.135 13.1167 122.135 15.249 122.135 17.8644 121.791 20.9629 121.101ZM39.0622 105.694C38.3253 111.411 32.0762 115.571 20.3152 118.175L20.3135 118.175C17.4286 118.817 15.0297 119.138 13.1167 119.138 10.6321 119.138 9.25832 118.617 8.99537 117.573 8.68944 116.343 9.73096 115.095 12.1199 113.829 17.82 110.812 23.3349 107.079 28.6645 102.631 35.099 97.2603 39.9998 91.8107 43.367 86.282L43.3674 86.2813 43.3714 86.2814C43.6743 86.2891 43.9089 86.4121 44.0754 86.6503 44.6977 87.5639 43.8314 91.2946 41.4763 97.8424L41.4408 97.9416C40.0005 101.961 39.2076 104.545 39.0622 105.694Z" fill="#FFFFFF" fill-rule="evenodd" fill-opacity="1" transform="matrix(1.00153 0 0 1 631 306.337)"/><path d="M105.013 72.167C103.035 72.167 100.997 71.3877 99.4288 70.0291 98.6496 69.3598 91.9065 63.1162 94.0143 50.4091L94.6437 46.603 96.7516 49.8397C97.7905 51.448 99.6686 53.1663 101.657 54.9944 104.334 57.4519 107.361 60.2391 109.429 63.6556 111.207 66.6026 110.557 68.6505 110.018 69.6096 109.109 71.2079 107.251 72.167 105.023 72.167L105.013 72.167Z" fill="#A7CAFF" fill-rule="nonzero" fill-opacity="1" transform="matrix(1.00153 0 0 1 631 306.337)"/><path d="M105.013 73.6654 105.023 73.6654C107.964 73.6654 110.065 72.5583 111.324 70.3442 112.575 68.1196 112.371 65.6314 110.711 62.8797 109.25 60.4668 106.57 57.4707 102.671 53.8914L102.592 53.8192C100.152 51.5752 98.6236 49.9761 98.0072 49.0219L93.7945 42.5531 92.5361 50.1639C91.5968 55.8263 92.179 60.8953 94.2828 65.3708 95.4462 67.8458 96.8345 69.7761 98.4477 71.1618 100.375 72.8309 102.563 73.6654 105.013 73.6654ZM108.712 68.8749C108.032 70.0706 106.802 70.6685 105.023 70.6685L105.013 70.6685C103.308 70.6685 101.774 70.0778 100.41 68.8965 99.1149 67.784 97.9766 66.1838 96.9951 64.0958 95.156 60.1834 94.6552 55.7029 95.4926 50.6543L95.4929 50.6528 95.4959 50.6574C96.2465 51.8195 97.9358 53.6087 100.564 56.0252L100.642 56.0974C104.333 59.4848 106.834 62.2629 108.147 64.4315 109.204 66.1839 109.393 67.6651 108.712 68.8749Z" fill="#FFFFFF" fill-rule="evenodd" fill-opacity="1" transform="matrix(1.00153 0 0 1 631 306.337)"/><path d="M38.3015 101.604C36.0002 109.235 33.6215 117.123 35.3347 124.533L35.3347 124.543 35.8642 126.831 37.7223 125.382C45.7712 119.096 58.4474 112.681 68.0415 107.827 68.1372 107.054 68.4067 106.193 68.8499 105.243 72.9458 97.9503 70.5482 92.6557 85.3332 89.1593 80.1385 91.7566 79.3393 95.0533 79.2394 101.147 79.2435 101.668 79.2368 102.167 79.2193 102.646 88.9721 99.3773 102.083 98.1882 108.461 98.0303L109.719 98.0003 109.899 96.7516C110.568 92.2861 110.339 89.1593 109.21 87.1813 107.612 84.4641 105.074 82.8257 102.626 81.2473 100.259 79.7189 97.8012 78.1305 96.053 75.5132 95.983 75.3933 95.6534 74.8339 95.4636 74.5142 93.6954 65.2336 95.5535 54.4046 97.5215 46.7025 106.492 41.9573 110.908 36.5928 111.807 29.3801 112.566 23.2863 109.759 11.818 101.318 6.56332 96.2228 3.39654 88.6405 1.49848 81.0283 1.49848 75.6238 1.49848 70.499 2.4575 66.2233 4.25567 55.0447 8.96088 52.1476 14.9848 49.87 26.7128 48.4914 33.8156 45.2347 35.2142 41.4585 36.8425 40.0899 37.4319 38.6714 38.0413 37.3527 38.9404 33.3767 41.6077 30.2599 44.1251 27.5127 46.3428 23.8564 49.2998 20.9694 51.6275 17.8825 52.7663 6.90367 56.8721 6.81376 62.946 7.04353 64.7142 7.44312 67.7411 9.80072 70.0587 12.7777 70.3484 13.2972 70.3984 13.8466 70.4283 14.406 70.4283 24.266 70.4283 36.054 62.2866 39.9301 59.6093 41.8082 58.3207 43.1967 57.6314 44.1358 57.2717 43.4865 63.0858 41.6883 79.6989 41.3187 88.2402 41.1488 92.1862 39.7702 96.7316 38.3217 101.537L38.3015 101.604Z" fill="url(#fill5)" fill-rule="evenodd" transform="matrix(1.00153 0 0 1 631 306.337)"/><path d="M33.8364 124.7C32.6947 119.499 33.7049 111.656 36.8669 101.171L36.8871 101.104 36.9221 100.988C38.7482 94.9305 39.7147 90.6599 39.8216 88.1758 40.0761 82.2934 40.917 72.8471 42.3441 59.8369 41.8492 60.132 41.3272 60.468 40.7779 60.8449 30.0819 68.2328 21.2913 71.9268 14.406 71.9268 13.8266 71.9268 13.2361 71.8979 12.6343 71.84 8.47314 71.4351 6.11436 69.1252 5.55794 64.9103 5.29198 62.8635 5.7655 60.8401 6.97851 58.8398 8.8585 55.7397 12.3182 53.2474 17.3576 51.3627 19.2763 50.6549 22.3472 48.5933 26.5704 45.1777L26.5911 45.1609C30.528 41.9828 33.8369 39.4945 36.5178 37.6959 37.4661 37.0494 38.9091 36.3089 40.8469 35.4743L40.8658 35.4662 40.8752 35.4622C43.1301 34.4898 44.6762 33.5896 45.5134 32.7615 46.8799 31.4097 47.8417 29.2983 48.399 26.4273 49.6556 19.9567 51.3451 15.1515 53.4673 12.0116 55.9943 8.27291 60.0525 5.22723 65.642 2.87456 70.1987 0.958185 75.3275 0 81.0283 0 89.4073 0 96.4341 1.76355 102.109 5.29066 106.253 7.87009 109.353 11.8116 111.41 17.1152 113.143 21.5849 113.771 25.735 113.294 29.5654 112.381 36.8887 107.554 42.9368 98.8127 47.7098 96.2238 58.0863 95.5822 66.8427 96.8879 73.9788L96.9882 74.1483 97.3217 74.7146C98.3803 76.2811 100.419 78.039 103.439 79.9884 106.96 82.2591 109.314 84.4035 110.502 86.4216 111.801 88.6985 112.094 92.2159 111.381 96.9737L111.022 99.4682 108.496 99.5283C103.331 99.6563 97.8685 100.193 92.107 101.137 84.4816 102.388 78.6147 104.08 74.5062 106.213 73.3552 106.811 71.4315 107.792 68.7353 109.156 53.9674 116.627 43.9372 122.429 38.6447 126.563L34.9338 129.456 33.8364 124.715 33.8364 124.7ZM36.7967 124.204 36.7947 124.196C35.7124 119.514 36.693 112.128 39.7363 102.036L39.7563 101.969 39.7915 101.852C41.69 95.5552 42.6981 91.0393 42.8157 88.3047 43.0848 82.0865 44.0212 71.7976 45.625 57.4381L45.8982 54.9921 43.5998 55.8723C42.284 56.3763 40.7781 57.2101 39.0822 58.3738 28.8937 65.4112 20.6683 68.9299 14.406 68.9299 13.9225 68.9299 13.4275 68.9055 12.9211 68.8568 10.3418 68.6058 8.87783 67.1596 8.52911 64.5181 7.9794 60.2876 11.2722 56.8382 18.4074 54.1698 20.6266 53.3511 23.9758 51.1305 28.4549 47.508L28.4736 47.4929C32.3418 44.3702 35.5798 41.9342 38.1875 40.1848 38.9895 39.638 40.2711 38.9854 42.0323 38.2269L42.0512 38.2188 42.0619 38.2142C44.6629 37.0926 46.5159 35.9853 47.621 34.8921 49.4262 33.1064 50.6662 30.4751 51.341 26.9983 52.5198 20.9281 54.0563 16.4919 55.9503 13.6898 58.1446 10.4433 61.7627 7.75901 66.8046 5.63678 70.9892 3.8769 75.7304 2.99695 81.0283 2.99695 88.8371 2.99695 95.3365 4.60996 100.527 7.83599 104.103 10.0625 106.8 13.5168 108.615 18.1989 110.167 22.1989 110.735 25.8643 110.32 29.1949 109.515 35.6489 105.016 41.0432 96.8208 45.3779L96.234 45.6883 96.0696 46.3316C93.205 57.5429 92.5123 67.0306 93.9916 74.7946L94.0406 75.0519 94.4091 75.6747 94.7833 76.3101 94.8069 76.3454C96.0888 78.2647 98.4244 80.3183 101.814 82.5063 104.937 84.5203 106.971 86.3319 107.918 87.941 108.861 89.5938 109.027 92.4566 108.417 96.5295L108.417 96.5324C103.115 96.6642 97.5164 97.2133 91.622 98.1799 83.6821 99.4818 77.5165 101.273 73.125 103.554 71.983 104.146 70.0687 105.122 67.3823 106.482 52.4403 114.041 42.2462 119.948 36.8 124.202L36.7967 124.204Z" fill="#FFFFFF" fill-rule="evenodd" fill-opacity="1" transform="matrix(1.00153 0 0 1 631 306.337)"/><path d="M110.288 28.9705C109.289 28.3711 106.991 28.111 105.992 27.9112 105.393 27.8113 104.694 27.7114 104.094 27.6115L102.496 27.6115C100.398 27.6115 86.9116 29.4097 83.4152 29.5096 81.7169 29.5096 79.619 28.9102 78.0207 28.6105 76.5222 28.4107 75.0237 28.2109 73.5252 28.111L71.4274 28.111C65.8331 28.111 60.4386 29.7094 56.7423 34.5045 56.5425 34.7043 56.4426 34.9041 56.2428 35.1039 57.042 35.5035 63.3356 41.4974 67.831 43.5953 81.7169 50.0887 97.5908 48.3005 106.362 38.5704 110.098 34.4346 109.878 31.7177 110.288 28.9705Z" fill="#FFFFFF" fill-rule="nonzero" fill-opacity="1" transform="matrix(1.00153 0 0 1 631 306.337)"/><path d="M78.9197 82.303C70.9278 83.3019 65.9329 79.3062 65.9329 71.8137 65.9329 64.3213 66.9319 52.3335 72.4262 43.842 79.2593 37.7083 96.4318 41.185 95.9023 44.3418 92.9055 49.836 91.1177 63.3496 89.9085 71.8136 89.409 75.3101 86.9116 81.304 78.9197 82.303Z" fill="#FFFFFF" fill-rule="nonzero" fill-opacity="1" transform="matrix(1.00153 0 0 1 631 306.337)"/><path d="M92.3061 33.6061C94.4039 31.0087 96.9014 29.2105 97.0013 27.812 97.1012 26.4134 92.3061 24.3155 90.408 24.6152 88.5099 24.9149 84.1144 27.812 84.2143 29.4103 84.3142 31.0087 87.9106 32.5072 89.7087 33.8059 89.5089 35.604 86.5619 37.3722 84.3042 37.3722 81.2873 37.3722 77.8108 35.6739 77.601 36.4731 77.3313 37.522 80.6979 39.1004 84.3042 39.1004 86.8217 39.1004 88.3901 38.2014 89.6887 37.0325 90.8975 35.9536 91.8166 36.5031 92.2362 36.8427 93.2152 37.6419 95.2031 38.2014 96.8115 38.2014 98.6496 38.2014 101.597 36.7328 101.317 36.0835 100.867 35.0146 98.6896 36.603 97.0712 36.603 93.7047 36.603 91.9864 34.7049 92.2861 33.6061L92.3061 33.6061Z" fill="#000000" fill-rule="nonzero" fill-opacity="1" transform="matrix(1.00153 0 0 1 631 306.337)"/><path d="M75.5232 22.8564C75.5232 24.6219 74.4945 26.0532 73.2255 26.0532 71.9565 26.0532 70.9278 24.6219 70.9278 22.8564 70.9278 21.0909 71.9565 19.6597 73.2255 19.6597 74.4945 19.6597 75.5232 21.0909 75.5232 22.8564Z" fill="#000000" fill-rule="nonzero" fill-opacity="1" transform="matrix(1.00153 0 0 1 631 306.337)"/><path d="M105.383 22.8566C105.383 24.5118 104.444 25.8536 103.285 25.8536 102.126 25.8536 101.187 24.5118 101.187 22.8566 101.187 21.2014 102.126 19.8597 103.285 19.8597 104.444 19.8597 105.383 21.2014 105.383 22.8566Z" fill="#000000" fill-rule="nonzero" fill-opacity="1" transform="matrix(1.00153 0 0 1 631 306.337)"/><path d="M1.13387e-05 139.794C7.8867 141.318 19.687 142.433 27.0188 140.641 37.6599 138.041 49.2423 126.677 63.678 114.776 78.1138 102.874 103.141 95.6833 123.007 102.506 128.743 104.478 131.676 108.422 131.676 108.521 129.992 107.426 128.209 106.231 126.424 105.434 117.904 101.55 107.698 101.45 98.6827 103.541 97.3946 103.84 96.2057 104.139 94.9176 104.537 93.7287 104.936 92.4406 105.334 91.2517 105.733 90.0628 106.131 88.8739 106.629 87.6849 107.127 86.4959 107.625 85.307 108.222 84.2171 108.72 83.0282 109.318 81.9383 109.916 80.8484 110.613 79.7585 111.31 78.6687 111.907 77.5789 112.704 76.489 113.401 75.4982 114.198 74.4083 114.895 73.4175 115.692 72.3276 116.489 71.4359 117.286 67.6709 120.572 64.2032 124.257 60.7354 127.743 46.8643 142.583 36.7583 150.55 15.4564 151.248 11.9886 151.347 3.3687 151.048 0.0990964 149.355 23.779 166.984 60.1409 172.362 79.0651 171.167 98.9799 169.972 122.362 161.506 128.704 145.77 116.121 136.408 112.157 151.746 102.051 146.666 91.9453 141.587 98.1872 129.337 107.798 121.867 117.409 114.397 124.156 115.065 127.703 116.529 133.241 118.809 133.37 123.162 133.063 124.257 132.677 125.652 131.577 126.548 130.487 127.444 133.558 126.946 135.54 126.249 137.918 123.859 139.801 121.269 140.196 118.282 139.602 115.194 138.611 109.517 135.342 104.139 130.685 100.952 119.391 92.9843 104.994 92.6357 91.113 94.05 75.4783 95.6435 56.4156 106.31 41.1772 118.042 31.953 125.144 16.1499 136.717 0 139.804L1.13387e-05 139.794ZM76.9844 140.79C67.4727 151.845 51.5507 159.195 35.5693 158.02 27.8412 157.452 22.7882 156.327 21.6983 155.331 33.9841 156.725 48.5487 152.343 54.2953 148.658 60.0418 144.973 66.9774 136.308 70.7424 133.719 74.5074 131.129 76.6871 131.727 77.9752 132.623 80.1548 134.018 79.5605 137.802 76.9844 140.79Z" fill="#479AFF" fill-rule="nonzero" fill-opacity="1" transform="matrix(1.00153 0 0 1 631 306.337)"/><path d="M1.13387e-05 139.794C7.8867 141.318 19.687 142.433 27.0188 140.641 37.6599 138.041 49.2423 126.677 63.678 114.776 78.1138 102.874 103.141 95.6833 123.007 102.506 128.743 104.478 131.676 108.422 131.676 108.521 129.992 107.426 128.209 106.231 126.424 105.434 117.904 101.55 107.698 101.45 98.6827 103.541 97.3946 103.84 96.2057 104.139 94.9176 104.537 93.7287 104.936 92.4406 105.334 91.2517 105.733 90.0628 106.131 88.8739 106.629 87.6849 107.127 86.4959 107.625 85.307 108.222 84.2171 108.72 83.0282 109.318 81.9383 109.916 80.8484 110.613 79.7585 111.31 78.6687 111.907 77.5789 112.704 76.489 113.401 75.4982 114.198 74.4083 114.895 73.4175 115.692 72.3276 116.489 71.4359 117.286 67.6709 120.572 64.2032 124.257 60.7354 127.743 46.8643 142.583 36.7583 150.55 15.4564 151.248 11.9886 151.347 3.3687 151.048 0.0990964 149.355 23.779 166.984 60.1409 172.362 79.0651 171.167 98.9799 169.972 122.362 161.506 128.704 145.77 116.121 136.408 112.157 151.746 102.051 146.666 91.9453 141.587 98.1872 129.337 107.798 121.867 117.409 114.397 124.156 115.065 127.703 116.529 133.241 118.809 133.37 123.162 133.063 124.257 132.677 125.652 131.577 126.548 130.487 127.444 133.558 126.946 135.54 126.249 137.918 123.859 139.801 121.269 140.196 118.282 139.602 115.194 138.611 109.517 135.342 104.139 130.685 100.952 119.391 92.9843 104.994 92.6357 91.113 94.05 75.4783 95.6435 56.4156 106.31 41.1772 118.042 31.953 125.144 16.1499 136.717 0 139.804L1.13387e-05 139.794ZM76.9844 140.79C67.4727 151.845 51.5507 159.195 35.5693 158.02 27.8412 157.452 22.7882 156.327 21.6983 155.331 33.9841 156.725 48.5487 152.343 54.2953 148.658 60.0418 144.973 66.9774 136.308 70.7424 133.719 74.5074 131.129 76.6871 131.727 77.9752 132.623 80.1548 134.018 79.5605 137.802 76.9844 140.79Z" fill="#FFFFFF" fill-rule="nonzero" fill-opacity="1" transform="matrix(1.00153 0 0 1 631 306.337)"/><path d="M71.9268 45.4538C75.9228 47.4517 81.4172 48.9502 86.9116 48.9502 90.5744 48.9502 93.9044 48.4507 96.9013 47.4517L99.3989 43.9553C92.406 47.2852 83.2486 47.7847 71.9268 45.4538Z" fill="#EAEAEA" fill-rule="nonzero" fill-opacity="1" transform="matrix(1.00153 0 0 1 631 306.337)"/></g></g></g></g></g></svg>